<?xml version="1.0" encoding="utf-8"?>
<!-- Generator: Adobe Illustrator 21.0.0, SVG Export Plug-In . SVG Version: 6.00 Build 0)  -->
<svg version="1.1" id="Layer_1" xmlns="http://www.w3.org/2000/svg" xmlns:xlink="http://www.w3.org/1999/xlink" x="0px" y="0px"
	 viewBox="0 0 960 960" style="enable-background:new 0 0 960 960;" xml:space="preserve">
<style type="text/css">
	.st0{fill:#FFFFFF;}
</style>
<g>
	<path class="st0" d="M254.4,551.2c0-11.5,11.7-21.2,25.3-21.2c7.2,0,13.9,2.6,18.5,6.9l-7.4,5.7c-2.8-2.7-6.7-4.6-11.1-4.6
		c-8,0-14.8,6.1-14.8,13.2c0,7.2,6.8,13.3,14.8,13.3c4.4,0,8.3-1.9,11.1-4.6l7.4,5.7c-4.6,4.2-11.3,6.9-18.5,6.9
		C266.1,572.5,254.4,562.7,254.4,551.2z"/>
	<path class="st0" d="M344.8,565.3h-21.2l-3.1,6.4h-11.4l19.4-41H340l19.4,41h-11.5L344.8,565.3z M341.3,557.8l-7.1-15l-7.1,15
		H341.3z"/>
	<path class="st0" d="M368.8,565.7l5.9-6c4.5,3.3,9.6,5.4,15.7,5.4c5.1,0,7.8-2,7.8-4.6c0-2.9-2.8-3.8-10.1-5.3
		c-10.1-2-17.2-4.4-17.2-12.4c0-7.6,7.2-12.8,17.6-12.8c7.8,0,13.8,2.1,18.7,5.7l-5.3,6.3c-4.2-2.9-9-4.5-13.6-4.5c-4.4,0-7,2-7,4.4
		c0,3,2.8,3.9,10.2,5.4c10.3,2,17.1,4.6,17.1,12.2c0,7.8-6.9,13-18.5,13C381.7,572.5,374.4,570.1,368.8,565.7z"/>
	<path class="st0" d="M435.2,538.7h-14.8v-7.9h40v7.9h-14.8v33.1h-10.3V538.7z"/>
	<path class="st0" d="M502.5,565.3h-21.2l-3.1,6.4h-11.4l19.4-41h11.4l19.4,41h-11.5L502.5,565.3z M499,557.8l-7.1-15l-7.1,15H499z"
		/>
	<path class="st0" d="M523.5,530.7h11.1l8.8,27.5l10.5-27.5h11.1l10.5,27.5l8.8-27.5h11.1l-14.4,41h-10.3l-11.2-28.2l-11.3,28.2H538
		L523.5,530.7z"/>
	<path class="st0" d="M637.7,565.3h-21.2l-3.1,6.4H602l19.4-41h11.4l19.4,41h-11.5L637.7,565.3z M634.2,557.8l-7.1-15l-7.1,15H634.2
		z"/>
	<path class="st0" d="M676.6,557L658,530.7h11.9l11.9,18l12.3-18h11.4L687,557v14.8h-10.3V557z"/>
</g>
<g>
	<path class="st0" d="M338.4,607.6l-6.1-7.4H328v7.4h-5.7v-22.9h12c5.8,0,10,3.2,10,7.8c0,3.4-2.4,6.1-6.1,7.2l6.6,8H338.4z
		 M328,595.6h5.7c2.8,0,4.8-1.3,4.8-3.2s-1.9-3.2-4.8-3.2H328V595.6z"/>
	<path class="st0" d="M369.9,589.1v4.6h13.4v4.4h-13.4v5h14.8v4.4h-20.5v-22.9h20.5v4.4H369.9z"/>
	<path class="st0" d="M402.8,604.2l3.3-3.4c2.5,1.9,5.4,3,8.8,3c2.9,0,4.3-1.1,4.3-2.6c0-1.6-1.6-2.1-5.6-2.9
		c-5.6-1.1-9.6-2.5-9.6-6.9c0-4.2,4-7.1,9.9-7.1c4.3,0,7.7,1.2,10.4,3.2l-3,3.5c-2.4-1.6-5-2.5-7.6-2.5c-2.4,0-3.9,1.1-3.9,2.5
		c0,1.7,1.6,2.2,5.7,3c5.7,1.1,9.5,2.6,9.5,6.8c0,4.4-3.8,7.3-10.4,7.3C410,608,405.9,606.6,402.8,604.2z"/>
	<path class="st0" d="M450.4,589.1v4.6h13.4v4.4h-13.4v5h14.8v4.4h-20.5v-22.9h20.5v4.4H450.4z"/>
	<path class="st0" d="M502.9,604H491l-1.7,3.6h-6.4l10.9-22.9h6.4l10.9,22.9h-6.4L502.9,604z M500.9,599.8l-4-8.4l-4,8.4H500.9z"/>
	<path class="st0" d="M545.8,607.6l-6.1-7.4h-4.2v7.4h-5.7v-22.9h12c5.8,0,10,3.2,10,7.8c0,3.4-2.4,6.1-6.1,7.2l6.6,8H545.8z
		 M535.4,595.6h5.7c2.8,0,4.8-1.3,4.8-3.2s-1.9-3.2-4.8-3.2h-5.7V595.6z"/>
	<path class="st0" d="M570.5,596.1c0-6.4,6.5-11.9,14.2-11.9c4,0,7.8,1.5,10.4,3.8l-4.2,3.2c-1.6-1.5-3.8-2.6-6.2-2.6
		c-4.5,0-8.3,3.4-8.3,7.4c0,4,3.8,7.4,8.3,7.4c2.4,0,4.7-1,6.2-2.6l4.2,3.2c-2.6,2.3-6.3,3.8-10.4,3.8
		C577,608,570.5,602.5,570.5,596.1z"/>
	<path class="st0" d="M637.7,584.6v22.9H632v-9.5h-12.1v9.5h-5.7v-22.9h5.7v9H632v-9H637.7z"/>
</g>
<g>
	<path class="st0" d="M607.5,478.7c-7.9-4.4-13.5-8.8-19.4-13.7H419.2c-4,1-7.4,1.8-9.5,2.6c-52,6.2-85.3,18.6-85,29.9
		c0,0.1,0,0.3,0.2,0.7c5.5,2.1,8.5,1.4,14.5,1.8c1.3,0.1,2.6,0.1,3.9,0.2c-2.3,1.2-4.5,1.8-6.1,1.8c-0.8,0-1.5,0-1.9,0
		c-0.4-0.1-0.7-0.1-0.7-0.1s0.2,0.1,0.6,0.2c0.4,0.1,1.1,0.3,2,0.4c1.7,0.2,4.4,0.1,7.4-1.1c0.8-0.3,1.6-0.7,2.4-1.1
		c2.2-1.2,4.3-2.8,6.5-4.5c3-2.3,6.3-4.8,10.3-5.5c2-0.4,4-0.2,5.5,0.4c1.5,0.6,2.7,1.9,3.1,3.2c0.5,1.3,0.1,2.6-0.8,3.6
		c-0.9,1-2.3,1.5-3.6,1.5c-1.3,0-2.6-0.4-3.3-1c-0.8-0.6-1.2-1.4-1.3-2.1c-0.2-1.4,0.8-2,0.7-2c0,0-0.2,0.1-0.5,0.4
		c-0.3,0.3-0.7,0.9-0.7,1.7c0,0.8,0.2,1.8,1,2.8c0.5,0.5,1.1,1,1.9,1.3c0.6,0.3,1.3,0.5,2.1,0.6c1.4,0.2,3-0.1,4.4-0.9
		c0.1-0.1,0.2-0.1,0.3-0.2c0,0,0,0.1,0,0.2c0,0.4,0.1,0.9,0.4,1.4c0.9,1.3,2.8,2,4.7,1.5c1.9-0.6,2.8-2,3-3.2c0,0,0,0,0,0
		c2.9-0.3,8.8-2.3,11.3-3.9c0.2-0.1,5.6,5.8,18.8,3.1c0,0,0.8,1.6,8.6,1.7c-0.9,0.4-1.7,0.8-2.6,1.1c-2.6,0.9-5,1-6.7,1
		c-0.8,0-1.5-0.1-1.9-0.1c-0.4,0-0.7-0.1-0.7-0.1s0.2,0.1,0.6,0.2c0.4,0.1,1,0.3,1.9,0.5c1.6,0.3,4.2,0.6,7.3,0
		c2-0.4,4.2-1.2,6.3-2.3c1.1-0.6,2.2-1.3,3.3-2c3.2-2.1,6.3-4.6,10.1-6.2c1.8-0.8,3.8-1.2,5.6-1.2c1.8-0.1,3.6,0.3,4.9,1.1
		c1.3,0.7,2.3,1.9,2.7,3c0.4,1.1,0.1,2.4-0.5,3.3c-0.6,0.9-1.7,1.5-2.7,1.6c-1,0.1-2-0.1-2.7-0.4c-1.4-0.7-1.7-1.6-1.7-1.5
		c0,0,0,0.2,0.2,0.6c0.2,0.4,0.5,0.9,1.2,1.4c0.7,0.5,1.7,0.9,3.1,1c1.4,0,3-0.5,4.1-1.7c0.6-0.6,1.1-1.4,1.4-2.3
		c0.4,0.1,0.8,0.3,1.2,0.6c0.7,0.4,1.4,1,1.8,1.8c0.4,0.7,0.6,1.7,0.3,2.3c-0.1,0.3-0.4,0.5-0.6,0.7c-0.3,0.3-0.8,0.4-1.1,0.4
		c-0.5,0.1-0.9-0.2-1.3-0.5c-0.1-0.1-0.2-0.3-0.3-0.4c-0.2-0.5,0.1-1.1,0.5-1.3c0.4-0.3,0.7-0.3,0.7-0.3c0,0-0.3-0.1-0.9,0
		c-0.5,0.1-1.5,0.6-1.7,1.7c0,0.1,0,0.2,0,0.4c0.1,1,1,2.3,2.7,2.5c1.8,0.3,3.8-0.6,4.6-2.4c0,0,0,0,0,0c2.7-0.7,4.6-1.2,7.5-1.2
		c5.4,0,11.6,3.1,18,1c1.7,0.7,4.8,1.1,8-0.3c0.1,0,0.1-0.1,0.2-0.1c1.6-0.7,3-2.2,3.9-3.7c0.9-1.6,1.9-3.1,3.5-4.4
		c2.2-1.8,5.3-3,8.6-3.1c-0.7,0.5-1.4,1.1-1.9,1.9c-1.8,2.4-1.9,5.6,0,8c0.2,0.2,0.4,0.5,0.7,0.7c2.1,1.8,5.3,2.4,7.9,1.2
		c0.8-0.4,1.4-0.9,1.9-1.4c0.4-0.4,0.7-0.8,1-1.2c0.7-0.9,1.2-1.8,1.7-2.6c0.8-1.2,1.9-2.1,3.1-2.4c0,2,0.9,3.7,2.1,4.9
		c0.5,0.5,1,0.9,1.6,1.2c1,0.6,2.1,0.9,3,1.1c1.4,0.2,2.6,0.1,3.3,0c0.7-0.1,1.1-0.3,1.1-0.3s-0.4,0.1-1.1,0.1c-0.7,0-1.8,0-3.2-0.3
		c-0.3-0.1-0.7-0.2-1.1-0.4c1.2,0.2,3,0.2,4,0.2c2.1-0.2,3-1,4.5-2.3c0,0,2.7,2.1,4.8,2.4c-0.6-0.3-1-2.6-0.6-3.5
		c0,0,5.7,2.5,11.1,2.1c5.3-0.5,6.3-0.9,7.7-1.7c0,0-0.1,0.1-0.1,0.1s0.2-0.1,0.5-0.3c0.7-0.4,2.1-1.2,3.5-2c2-1.1,4.5-2.7,7.5-4
		c2.9-1.3,5.8-1.8,8-1.7c1.1,0,2,0.2,2.7,0.3c0.2,0.1,0.4,0.1,0.6,0.1c-0.8,0.7-1.6,1.5-2.3,2.1c-1.3,1.3-2.6,2.4-3.9,3.3
		c-1.2,0.9-2.3,1.6-3.5,2.1c-2.4,1.1-4.7,1.5-6.3,1.4c-0.8,0-1.4-0.2-1.8-0.3c-0.4-0.1-0.6-0.2-0.6-0.2s0.2,0.1,0.6,0.3
		c0.4,0.2,1,0.4,1.8,0.6c1.6,0.4,4.2,0.4,7-0.5c2.2-0.7,4.4-2,6.6-3.6c0.7-0.5,1.3-1,2-1.5c2.8-2.2,5.7-4.8,9.3-6.2
		c1.8-0.7,3.7-1.1,5.4-0.9c1.6,0.1,3.2,0.9,4.3,1.9c1.1,1,1.8,2.3,1.9,3.5c0.1,0.6,0,1.1-0.2,1.6c-0.2,0.5-0.6,1-1.1,1.4
		c-1.9,1.4-4.6,1.3-5.7,0.5c-0.5-0.3-0.8-0.7-1-1c-0.3-0.4-0.3-0.7-0.4-0.7c0,0,0,0.3,0.2,0.7c0.1,0.4,0.4,0.8,0.9,1.3
		c1.2,1.1,4.1,1.8,7,0.3c0.7-0.4,1.3-1,1.8-1.7c0.2-0.3,0.4-0.7,0.5-1.1c0.1-0.4,0.2-0.9,0.2-1.3c0-0.2,0-0.3,0-0.5l1.6,0.5
		c0.3,0.1,0.6,0.2,0.8,0.5c0.2,0.1,0.3,0.3,0.5,0.5c0.4,0.5,0.7,1.2,0.7,1.8c0,0.8-0.5,1.5-1.1,2c-0.6,0.5-1.4,0.7-1.9,0.8
		c-0.5,0.1-0.9,0-0.9,0s0.2,0.2,0.8,0.4c0.6,0.2,1.6,0.3,2.7,0c1.1-0.3,2.5-1.3,2.9-2.8c0.2-0.7,0.2-1.5,0-2.3
		c5-0.3,10.3-0.6,12.4-3.5C623,486.1,617.1,482.2,607.5,478.7z M381.8,496.3c-0.3,0.3-0.7,0.3-1.1,0.3c-0.1-0.2-0.2-0.4-0.3-0.5
		c-0.4-0.8-1-1.3-1.4-1.5c-0.4-0.3-0.7-0.4-0.7-0.4s0.1,0.2,0.3,0.6c0.1,0.3,0.3,0.7,0.4,1.1c0,0.2,0,0.4,0.1,0.6
		c0.1,0.7,0,1.5-0.4,2.2c-0.1,0.2-0.2,0.4-0.4,0.6c-0.4,0.5-0.9,0.9-1.4,1c-0.7,0.2-1.6,0-2-0.4c-0.1-0.1-0.2-0.3-0.3-0.4
		c-0.1-0.4-0.1-0.8,0.1-1.1c0.3-0.4,1-0.6,1.4-0.5c0.5,0.1,0.7,0.3,0.7,0.3c0,0-0.1-0.3-0.5-0.6c-0.3-0.2-1.2-0.6-2.3,0.1
		c2.3-5.6-2.2-10.8-10.4-10.1c7.2-3.8,15.2-0.4,14.1,3.9c-0.1,0.5-0.6,0.9-1.1,1c-0.5,0.1-0.9-0.1-1.1-0.5c-0.4-0.8,0.2-1.2,0.2-1.2
		c0,0-0.1,0-0.4,0.2c-0.2,0.2-0.5,0.6-0.4,1.1c0,0.3,0.2,0.6,0.4,0.8c0.3,0.3,0.7,0.5,1.2,0.5c0.9,0.1,1.8-0.3,2.5-1.1
		c0.6,0,1.3,0.2,1.9,0.6c0.6,0.4,1.1,1.1,1.3,1.8C382.6,495.2,382.3,495.9,381.8,496.3z M606.5,490.4l-1.2,0.6c-0.3-1-0.8-2-1.5-2.8
		c0.3-0.2,1.1-0.6,2-0.4c0.7,0.1,1.2,0.5,1.3,1.1C607.2,489.4,606.9,490.2,606.5,490.4z M609.7,490.2c0,0.1,0,0.2-0.1,0.2
		c0,0,0,0,0,0c0,0.1,0,0.2-0.1,0.4c0,0,0,0,0,0c0-0.1,0.1-0.2,0.1-0.4c0,0,0,0,0,0C609.7,490.3,609.7,490.2,609.7,490.2
		c0-0.3,0-0.4,0-0.6C609.8,489.8,609.8,490,609.7,490.2z"/>
	<g>
		<path class="st0" d="M542.1,501.3c-0.6-0.3-1-2.6-0.6-3.5c0,0,5.7,2.5,11.1,2.1c5.5-0.5,6.4-1,7.8-1.8c0.5-0.5,1.6-1.8,2.7-3
			c1.4-1.6,3.7-3.9,7.1-5.4c3.5-1.5,7.4-1.5,9.7-0.6c1.2,0.4,2,0.9,2.6,1.3c0.2,0.2,0.4,0.3,0.5,0.4c2-1.8,4.3-3.6,7.4-4.8
			c2.2-0.9,4.7-1.3,7.1-1c2.5,0.3,4.5,1.5,5.9,3c0.1,0.1,0.2,0.2,0.3,0.3c0-0.1,0.1-0.2,0.2-0.3c0.3-0.4,0.9-0.9,1.9-1.1
			c0.5-0.1,1.2-0.1,1.8,0.1c0.7,0.2,1.3,0.7,1.7,1.3c0.4,0.6,0.6,1.3,0.5,2.1c0,0.2-0.1,0.5-0.2,0.7c0.2,0.1,0.3,0.2,0.5,0.3
			c0.8,0.6,1.3,1.4,1.6,2.3c5-0.3,10.4-0.6,12.4-3.5c-1.1-3.9-7-7.7-16.6-11.2c-9.3-5.2-15.4-10.4-22.4-16.3
			c-8.6-7.3-16.3-13.8-21.7-20.7c-8.3-10.5-12.9-19.6-15.1-24.7c-1.4-3.1-6.4-5-10.2-4.5c-18.1,2.1-24.9-0.3-39.6-4.1
			c-3.7-1-8,1.7-9.5,4.8c-4.2,8.8-11.2,17.3-19.5,24.5c-8.3,7.3-17.6,14.1-26.4,19.2c-10.4,6.2-27.2,8.3-33.3,10.7
			c-52,6.2-85.3,18.6-85,29.9c0,0.1,0,0.3,0.2,0.7c5.5,2.1,8.5,1.4,14.5,1.8c1.4,0.1,2.7,0.1,4.1,0.2c0.1,0,0.1-0.1,0.2-0.1
			c2.5-1.4,4.9-3.6,7.7-6.2c1-0.9,2-1.8,3.1-2.6c0.3-0.3,0.5-0.6,0.8-0.9c1.2-1.2,2.8-2.7,5-4c2.1-1.3,4.9-2.4,8.1-2.7
			c3.2-0.3,6.4,0.6,8.6,2.2c1.1,0.8,1.9,1.8,2.4,2.9c0.4,0.9,0.4,1.8,0.1,2.7c0.7-0.1,1.6,0,2.4,0.3c1,0.5,1.8,1.4,2.1,2.6
			c0.2,1.2-0.3,2.3-1.4,2.9c-0.5,0.3-1.3,0.4-1.8,0.3c0.1,0.4,0,1.1-0.1,1.5c2.8-0.2,9-2.3,11.5-3.9c0.2-0.1,5.6,5.8,18.8,3.1
			c0,0,0.8,1.6,8.8,1.8c1.8-0.9,3.6-2.1,5.5-3.6c1.4-1.1,2.9-2.4,4.6-3.6c1.7-1.2,3.6-2.4,5.8-3.4c2.2-0.9,4.7-1.4,7.2-1.4
			c2.4,0,4.9,0.7,6.7,1.9c1.8,1.2,2.9,3,3.3,4.8c0.1,0.6,0,1-0.1,1.6c0.5,0,1.2,0,1.8,0.2c1,0.2,2.3,0.7,3.2,1.7
			c0.9,1,1.3,2.6,0.7,4.3c2.9-0.7,4.8-1.3,7.9-1.3c5.5,0,11.7,3.2,18.1,0.9c-0.1,0-0.1,0-0.2-0.1c-1.5-0.6-2.1-1.1-2.3-1.3
			c0,0,0,0,0,0s0,0,0,0c0.1,0,0.1,0.1,0.5,0.3c0.4,0.2,1.1,0.6,1.9,0.8c0.6,0.2,1.3,0.3,2.1,0.3c0.3,0,0.5,0.1,0.8,0.1
			c0.4,0,0.7-0.2,1.1-0.2c1.1-0.1,2.3-0.5,3.5-1.1c1.4-0.7,2.3-1.9,3.1-3.5c0.7-1.6,1.7-3.6,3.5-5.1c3.4-3.1,9.3-5.2,15.3-3.8l3.9,1
			l-4.1,1.2c-1.7,0.6-3.7,1.9-4.6,3.2c-1.2,1.6-0.7,3.7,0.4,5.1c1,1.3,3.4,1.9,4.8,1.2c1.6-0.7,2.6-2.5,3.9-4.2
			c0.7-0.9,1.5-1.6,2.5-2.2c1-0.6,2.3-0.9,3.6-0.7l0.8,0.2l-0.2,0.7c-0.5,1.9,0.3,3.8,1.3,5.1c0.7,0.8,1.6,1.3,2.4,1.7
			c1.1,0.3,3.3,0.4,4.4,0.3c2.1-0.2,3-1,4.5-2.3C537.3,498.8,540,501,542.1,501.3z M533.2,439.1c-0.7-2-1.1-2-2.4-3.1
			c-1.3-1.1-3.4-1.6-5-0.8c-1.4,0.7-1.9,2.1-2.8,3.2c-2.2,3.2-12.7,8.9-13.4,9.9c-2-1.3,0.1-6.1,0.2-8.2c0.1-2.2-0.3-4.8-2.6-5.6
			c-1.4-0.5-3-0.1-4.2,0.6c-1.2,0.7-2.1,1.7-3.1,2.7c-7.7,8.1-14.4,14-25.9,17.5c-1.3-2.8,8.2-11.7,5.6-13.1c-2.8,0.8-15,6.3-17.8,7
			c5.5-2.7,7.9-6.4,11.9-10.6c2.2-2.3,5.6-4.8,7.2-7.5c2.4-4,6.3-7.4,8.7-11.5c0.9-1.6,2.7-6.2,4.8-6.4c2.3-0.2,5.5,2.5,7.8,3
			c1.9,0.4,3.6,0.1,5.4,0.7c3.1,1.1,3.1,3.9,7.1,4.2c7.1,1,9.4-3.2,14.6-2.5c2.7-0.1,4.5,2.3,6.7,2.1c2.2-0.2,4.9-2.2,9-0.2
			c7.1,10.9,14,20.3,20,32.1c-5.6-4.7-10.5-8-16.1-12.7c-0.9-0.4-1.9-0.5-1.9,3.6c-0.9-2.2-1.5-5-3.3-6.8c-1.8-1.8-4.6-3-7.3-2.5
			C533.7,434.8,534.2,436.9,533.2,439.1z"/>
		<path class="st0" d="M337.2,502.4c1.7,0.2,4.4,0.1,7.4-1.1c0.8-0.3,1.6-0.7,2.4-1.1c2.2-1.2,4.3-2.8,6.5-4.5
			c3-2.3,6.3-4.8,10.3-5.5c2-0.4,4-0.2,5.5,0.4c1.5,0.6,2.7,1.9,3.1,3.2c0.5,1.3,0.1,2.6-0.8,3.6c-0.9,1-2.3,1.5-3.6,1.5
			c-1.3,0-2.6-0.4-3.3-1c-0.8-0.6-1.2-1.4-1.3-2.1c-0.2-1.4,0.8-2,0.7-2c0,0-0.2,0.1-0.5,0.4c-0.3,0.3-0.7,0.9-0.7,1.7
			c0,0.8,0.2,1.8,1,2.8c0.5,0.5,1.1,1,1.9,1.3c0.6,0.3,1.3,0.5,2.1,0.6c1.4,0.2,3-0.1,4.4-0.9c0.1-0.1,0.2-0.1,0.3-0.2
			c0,0,0,0.1,0,0.2c0,0.4,0.1,0.9,0.4,1.4c0.9,1.3,2.8,2,4.7,1.5c1.9-0.6,2.8-2,3-3.2c0,0,0-0.1,0-0.1c0.1-0.5,0.1-0.9,0-1.3
			c0.5,0.1,1.2,0,1.7-0.3c1.1-0.6,1.7-1.9,1.5-3.1c-0.3-1.2-1.2-2.1-2.2-2.6c-0.8-0.3-1.5-0.4-2.2-0.4c0.3-0.9,0.2-1.8-0.2-2.7
			c-0.4-1.1-1.3-2.1-2.4-2.9c-2.2-1.6-5.5-2.4-8.7-2.1c-3.2,0.3-6,1.4-8.1,2.7c-2.2,1.3-3.8,2.7-5,4c-0.3,0.3-0.6,0.6-0.8,0.9
			c-1.1,0.9-2.2,1.8-3.1,2.6c-2.8,2.6-5.2,4.8-7.7,6.2c-0.1,0-0.1,0.1-0.2,0.1c-2.4,1.3-4.7,1.8-6.3,1.9c-0.8,0-1.5,0-1.9,0
			c-0.4-0.1-0.7-0.1-0.7-0.1s0.2,0.1,0.6,0.2C335.7,502.1,336.4,502.3,337.2,502.4z M377.9,491.3c-0.1,0.5-0.6,0.9-1.1,1
			c-0.5,0.1-0.9-0.1-1.1-0.5c-0.4-0.8,0.2-1.2,0.2-1.2c0,0-0.1,0-0.4,0.2c-0.2,0.2-0.5,0.6-0.4,1.1c0,0.3,0.2,0.6,0.4,0.8
			c0.3,0.3,0.7,0.5,1.2,0.5c0.9,0.1,1.8-0.3,2.5-1.1c0.6,0,1.3,0.2,1.9,0.6c0.6,0.4,1.1,1.1,1.3,1.8c0.1,0.7-0.1,1.4-0.6,1.8
			c-0.3,0.3-0.7,0.3-1.1,0.3c-0.1-0.2-0.2-0.4-0.3-0.5c-0.4-0.8-1-1.3-1.4-1.5c-0.4-0.3-0.7-0.4-0.7-0.4s0.1,0.2,0.3,0.6
			c0.1,0.3,0.3,0.7,0.4,1.1c0,0.2,0,0.4,0.1,0.6c0.1,0.7,0,1.5-0.4,2.2c-0.1,0.2-0.2,0.4-0.4,0.6c-0.4,0.5-0.9,0.9-1.4,1
			c-0.7,0.2-1.6,0-2-0.4c-0.1-0.1-0.2-0.3-0.3-0.4c-0.1-0.4-0.1-0.8,0.1-1.1c0.3-0.4,1-0.6,1.4-0.5c0.5,0.1,0.7,0.3,0.7,0.3
			c0,0-0.1-0.3-0.5-0.6c-0.3-0.2-1.2-0.6-2.3,0.1c2.3-5.6-2.2-10.8-10.4-10.1C370.9,483.6,379,487,377.9,491.3z"/>
		<path class="st0" d="M407.9,501.9c0,0,0.2,0.1,0.6,0.2c0.4,0.1,1,0.3,1.9,0.5c1.6,0.3,4.2,0.6,7.3,0c2-0.4,4.2-1.2,6.3-2.3
			c1.1-0.6,2.2-1.3,3.3-2c3.2-2.1,6.3-4.6,10.1-6.2c1.8-0.8,3.8-1.2,5.6-1.2c1.8-0.1,3.6,0.3,4.9,1.1c1.3,0.7,2.3,1.9,2.7,3
			c0.4,1.1,0.1,2.4-0.5,3.3c-0.6,0.9-1.7,1.5-2.7,1.6c-1,0.1-2-0.1-2.7-0.4c-1.4-0.7-1.7-1.6-1.7-1.5c0,0,0,0.2,0.2,0.6
			c0.2,0.4,0.5,0.9,1.2,1.4c0.7,0.5,1.7,0.9,3.1,1c1.4,0,3-0.5,4.1-1.7c0.6-0.6,1.1-1.4,1.4-2.3c0.4,0.1,0.8,0.3,1.2,0.6
			c0.7,0.4,1.4,1,1.8,1.8c0.4,0.7,0.6,1.7,0.3,2.3c-0.1,0.3-0.4,0.5-0.6,0.7c-0.3,0.3-0.8,0.4-1.1,0.4c-0.5,0.1-0.9-0.2-1.3-0.5
			c-0.1-0.1-0.2-0.3-0.3-0.4c-0.2-0.5,0.1-1.1,0.5-1.3c0.4-0.3,0.7-0.3,0.7-0.3c0,0-0.3-0.1-0.9,0c-0.5,0.1-1.5,0.6-1.7,1.7
			c0,0.1,0,0.2,0,0.4c0.1,1,1,2.3,2.7,2.5c1.8,0.3,3.8-0.6,4.6-2.4c0,0,0-0.1,0-0.1c0.7-1.7-0.1-3.3-1-4.2c-1-1-2.2-1.5-3.2-1.7
			c-0.6-0.1-1.2-0.1-1.6-0.1c0.1-0.5,0.1-1.1,0-1.6c-0.3-1.8-1.5-3.5-3.4-4.8c-1.9-1.2-4.3-1.9-6.7-1.9c-2.4,0-4.9,0.5-7.2,1.4
			c-2.2,0.9-4.1,2.1-5.8,3.4c-1.7,1.2-3.2,2.5-4.6,3.6c-1.9,1.5-3.7,2.7-5.5,3.6c-0.9,0.5-1.8,0.9-2.7,1.2c-2.6,0.9-5,1-6.7,1
			c-0.8,0-1.5-0.1-1.9-0.1C408.2,501.9,407.9,501.9,407.9,501.9z"/>
		<path class="st0" d="M530,501.3c-0.5-0.1-1-0.3-1.5-0.6c-0.8-0.4-1.7-1-2.3-1.8c-1.1-1.3-1.7-3.2-1.2-5l0.2-0.8l-1-0.2
			c-1.2-0.2-2.6,0.2-3.6,0.7c-1,0.6-1.8,1.4-2.5,2.2c-1.3,1.7-2.3,3.5-3.9,4.2c-1.5,0.7-3.8,0.1-4.8-1.2c-1.1-1.4-1-3.5,0.2-5.1
			c1-1.3,2.6-2.4,4.3-2.9l4.4-1.5l-4.5-1c-6-1.4-11.9,0.7-15.3,3.8c-1.8,1.6-2.8,3.5-3.5,5.1c-0.7,1.6-1.7,2.8-3.1,3.5
			c-1.1,0.6-2.3,1-3.5,1.1c-0.7,0.1-1.3,0.1-1.9,0.1c-0.8,0-1.5-0.2-2.1-0.3c-0.9-0.2-1.5-0.6-1.9-0.8c-0.3-0.2-0.5-0.3-0.6-0.4
			c0.2,0.1,0.8,0.8,2.4,1.5c0.1,0,0.1,0,0.2,0.1c1.7,0.7,4.8,1.2,8.1-0.3c0.1,0,0.1-0.1,0.2-0.1c1.6-0.7,3-2.2,3.9-3.7
			c0.9-1.6,1.9-3.1,3.5-4.4c2.2-1.8,5.3-3,8.6-3.1c-0.7,0.5-1.4,1.1-1.9,1.9c-1.8,2.4-1.9,5.6,0,8c0.2,0.2,0.4,0.5,0.7,0.7
			c2.1,1.8,5.3,2.4,7.9,1.2c0.8-0.4,1.4-0.9,1.9-1.4c0.4-0.4,0.7-0.8,1-1.2c0.7-0.9,1.2-1.8,1.7-2.6c0.8-1.2,1.9-2.1,3.1-2.4
			c0,2,0.9,3.7,2.1,4.9c0.5,0.5,1,0.9,1.6,1.2c1,0.6,2.1,0.9,3,1.1c1.4,0.2,2.6,0.1,3.3,0c0.7-0.1,1.1-0.3,1.1-0.3s-0.4,0.1-1.1,0.1
			C532.4,501.7,531.3,501.7,530,501.3z"/>
		<path class="st0" d="M582.3,494.4c2.8-2.2,5.7-4.8,9.3-6.2c1.8-0.7,3.7-1.1,5.4-0.9c1.6,0.1,3.2,0.9,4.3,1.9
			c1.1,1,1.8,2.3,1.9,3.5c0.1,0.6,0,1.1-0.2,1.6c-0.2,0.5-0.6,1-1.1,1.4c-1.9,1.4-4.6,1.3-5.7,0.5c-0.5-0.3-0.8-0.7-1-1
			c-0.3-0.4-0.3-0.7-0.4-0.7c0,0,0,0.3,0.2,0.7c0.1,0.4,0.4,0.8,0.9,1.3c1.2,1.1,4.1,1.8,7,0.3c0.7-0.4,1.3-1,1.8-1.7
			c0.2-0.3,0.4-0.7,0.5-1.1c0.1-0.4,0.2-0.9,0.2-1.3c0-0.2,0-0.3,0-0.5l1.6,0.5c0.3,0.1,0.6,0.2,0.8,0.5c0.2,0.1,0.3,0.3,0.5,0.5
			c0.4,0.5,0.7,1.2,0.7,1.8c0,0.8-0.5,1.5-1.1,2c-0.6,0.5-1.4,0.7-1.9,0.8c-0.5,0.1-0.9,0-0.9,0s0.2,0.2,0.8,0.4
			c0.6,0.2,1.6,0.3,2.7,0c1.1-0.3,2.5-1.3,2.9-2.8c0.2-0.7,0.2-1.6-0.1-2.3c-0.3-0.8-0.8-1.6-1.6-2.3c-0.1-0.1-0.3-0.2-0.5-0.3
			c0.1-0.2,0.1-0.5,0.2-0.7c0.1-0.8-0.1-1.5-0.5-2.1c-0.4-0.6-1-1.1-1.7-1.3c-0.7-0.2-1.3-0.2-1.8-0.1c-1.1,0.2-1.6,0.7-1.9,1.1
			c-0.1,0.1-0.1,0.2-0.2,0.3c-0.1-0.1-0.2-0.2-0.3-0.3c-1.4-1.4-3.4-2.6-5.9-3c-2.4-0.3-4.9,0.1-7.1,1c-3.1,1.2-5.4,3-7.4,4.8
			c-0.1-0.1-0.3-0.2-0.5-0.4c-0.5-0.4-1.4-0.9-2.6-1.3c-2.4-0.8-6.2-0.9-9.7,0.6c-3.5,1.5-5.7,3.8-7.1,5.4c-1.1,1.3-2.2,2.5-2.7,3
			c-0.1,0.2-0.2,0.3-0.2,0.3s0.2-0.1,0.5-0.3c0.7-0.4,2.1-1.2,3.5-2c2-1.1,4.5-2.7,7.5-4c2.9-1.3,5.8-1.8,8-1.7c1.1,0,2,0.2,2.7,0.3
			c0.2,0.1,0.4,0.1,0.6,0.1c-0.8,0.7-1.6,1.5-2.3,2.1c-1.3,1.3-2.6,2.4-3.9,3.3c-1.2,0.9-2.3,1.6-3.5,2.1c-2.4,1.1-4.7,1.5-6.3,1.4
			c-0.8,0-1.4-0.2-1.8-0.3c-0.4-0.1-0.6-0.2-0.6-0.2s0.2,0.1,0.6,0.3c0.4,0.2,1,0.4,1.8,0.6c1.6,0.4,4.2,0.4,7-0.5
			c2.2-0.7,4.4-2,6.6-3.6C581,495.5,581.7,494.9,582.3,494.4z M605.8,487.7c0.7,0.1,1.2,0.5,1.3,1.1c0.2,0.6-0.2,1.4-0.6,1.6
			l-1.2,0.6c-0.3-1-0.8-2-1.5-2.8C604.1,487.9,604.8,487.5,605.8,487.7z"/>
	</g>
	<path class="st0" d="M586.6,507.8c-1.9,0.2-4.5,0.4-7.8,0.2c-3.3-0.2-7-0.9-11.1-2.3c-1.1-0.3-2.4-0.7-3.9-0.7
		c-1.4,0-2.8,0.3-4,0.7c-1.2,0.3-2.2,0.6-3.4,0.8c-1.1,0.2-2.3,0.3-3.4,0.3c-5.3,0.1-10.3-1.6-13.7-4.2l-1.2-0.9l-0.3-0.2l-0.1,0.2
		l-0.6,1.3c-1.1,2.2-3.1,3.8-5.2,4.8c-2.1,1-4.3,1.2-6,1.1c-1.8-0.1-3.2-0.5-4.1-0.8c-0.9-0.3-1.4-0.6-1.4-0.6s0.4,0.3,1.2,0.8
		c0.9,0.5,2.2,1.1,4.1,1.5c1.9,0.3,4.4,0.4,7-0.5c2.1-0.7,4.3-2,5.9-3.9c3.6,2.7,8.8,4.5,14.5,4.4c1.4,0,2.8-0.2,4.1-0.4
		c1.3-0.3,2.6-0.7,3.7-1c1.1-0.3,2.1-0.6,3-0.7c0.9-0.1,1.8,0.1,2.8,0.4c4.3,1.2,8.6,1.6,12,1.4c3.5-0.2,6.2-0.8,8-1.3
		c1.8-0.5,2.7-0.9,2.7-0.9S588.5,507.5,586.6,507.8z"/>
	<g>
		<g>
			<path class="st0" d="M396.7,464.4c-0.6,0.1-0.9,0.2-1.4,0.3c-0.6,0-0.9,0-1.5,0.1c-0.6,0.1-0.9,0.1-1.5,0.1
				c-0.6,0.1-0.9,0.1-1.5,0.2c-0.6,0-0.7,0.3-1.3,0.3c-0.5,0.1-0.7,0.2-1.2,0.3c0.4,0.8,0.6,1.3,0.9,2.1c0.7,0,0.9-0.2,1.6-0.2
				c0.7-0.1,0.9-0.4,1.7-0.4c0.7-0.2,1-0.3,1.7-0.5c0.7-0.1,1.1-0.1,1.8-0.1c0.6-0.2,0.9-0.2,1.5-0.4
				C397.2,465.5,397,465.1,396.7,464.4z"/>
			<path class="st0" d="M395.7,461.1c-0.6,0.2-0.9,0.2-1.5,0.4c-0.6,0.1-0.9,0.1-1.5,0.1c-0.6,0-0.9,0-1.6-0.1
				c-0.6,0.1-0.7,0.4-1.3,0.5c-0.6,0.1-0.8,0.2-1.3,0.3c-0.6,0.1-0.8,0.1-1.3,0.2c0.2,0.7,0.5,1.2,0.7,2c0.6-0.2,0.9-0.3,1.5-0.5
				c0.6,0,0.6-0.2,1.3-0.2c0.6-0.1,0.7-0.4,1.2-0.5c0.6,0,0.9,0,1.5,0.1c0.6,0,0.9,0,1.5-0.1c0.5-0.1,0.8-0.1,1.3-0.2
				C396.1,462.4,396,462,395.7,461.1z"/>
			<path class="st0" d="M394.1,458c-0.7,0.1-1.1,0.2-1.8,0.3c-0.7,0.1-1,0.2-1.7,0.3c-0.7,0-1.1,0-1.8,0c-0.6,0.2-1,0.3-1.6,0.5
				c-0.7,0.1-1,0.2-1.7,0.3c0.5,0.8,0.7,1.1,1.1,1.9c0.6-0.1,1-0.1,1.6-0.1c0.7-0.1,1-0.1,1.7-0.2c0.6-0.2,1-0.3,1.6-0.6
				c0.7-0.1,1.1-0.1,1.8-0.1c0.7,0,1,0,1.7-0.1C394.8,459.3,394.5,458.9,394.1,458z"/>
			<path class="st0" d="M392,454.5c-0.5,0.2-0.7,0.2-1.2,0.4c-0.5,0.1-0.8,0.2-1.4,0.3c-0.8,0-1.1,0.1-1.9,0.1
				c-0.6,0.3-1,0.4-1.6,0.6c-0.7,0.3-1,0.4-1.7,0.7c0.4,0.7,0.7,1,1.1,1.7c0.7-0.1,1-0.2,1.7-0.3c0.6-0.2,0.9-0.3,1.6-0.4
				c0.6-0.2,0.9-0.3,1.5-0.6c0.7,0,1.1,0,1.8,0c0.7-0.2,1-0.3,1.7-0.4C392.9,455.8,392.6,455.4,392,454.5z"/>
			<path class="st0" d="M390.3,451.7c-0.5,0.1-0.7,0.2-1.2,0.3c-0.5,0.1-0.8,0.2-1.3,0.4c-0.6,0.2-0.9,0.3-1.6,0.4
				c-0.6,0.2-0.9,0.3-1.6,0.5c-0.7,0.1-1.1,0.2-1.8,0.3c0.4,0.7,0.6,1,1.1,1.7c0.7-0.2,1-0.2,1.7-0.4c0.7-0.1,1.1-0.1,1.8-0.2
				c0.6-0.3,1-0.4,1.6-0.7c0.5-0.1,0.7-0.1,1.2-0.2c0.4-0.2,0.6-0.3,1.1-0.5C391,452.7,390.8,452.4,390.3,451.7z"/>
			<path class="st0" d="M388.2,448.4c-0.6,0.2-0.8,0.3-1.4,0.5c-0.6,0-1,0-1.6,0.1c-0.5,0.3-0.8,0.4-1.3,0.7
				c-0.5,0.3-0.7,0.4-1.2,0.7c-0.5,0.3-0.7,0.4-1.2,0.7c0.4,0.8,0.6,1.2,1,2c0.8-0.2,1.1-0.3,1.9-0.5c0.7-0.2,1-0.3,1.7-0.6
				c0.7-0.3,1-0.4,1.7-0.6c0.7-0.3,1-0.5,1.7-0.8C388.9,449.6,388.7,449.2,388.2,448.4z"/>
			<path class="st0" d="M386.1,445.7c-0.8,0.2-1.2,0.4-1.9,0.6c-0.5,0.3-0.7,0.4-1.2,0.7c-0.6,0.2-0.9,0.3-1.4,0.4
				c-0.7,0.5-1.1,0.8-1.8,1.3c0.5,0.5,0.7,0.8,1.2,1.3c0.4-0.3,0.7-0.4,1.1-0.7c0.6-0.1,0.9-0.2,1.5-0.2c0.5-0.3,0.7-0.5,1.1-0.8
				c0.6-0.2,0.8-0.2,1.4-0.4c0.6-0.1,0.9-0.2,1.5-0.3C386.9,446.8,386.7,446.4,386.1,445.7z"/>
			<path class="st0" d="M384.4,443.6c0.5,0.6,0.7,0.9,1.2,1.5c-0.7,0.1-1.1,0.2-1.8,0.4c-0.6,0.2-1,0.4-1.6,0.6
				c-0.7,0.1-1.1,0.2-1.8,0.3c-0.5,0.5-0.8,0.7-1.3,1.2c-0.4-0.6-0.6-0.9-1.1-1.4c0.5-0.3,0.8-0.4,1.3-0.7c0.4-0.3,0.6-0.5,1.1-0.8
				c0.5-0.2,0.8-0.3,1.4-0.4c0.6-0.1,0.8-0.2,1.4-0.4C383.7,443.8,383.9,443.7,384.4,443.6z"/>
			<path class="st0" d="M382.3,440.7c-0.6,0.3-0.9,0.5-1.5,0.8c-0.6,0.2-0.9,0.4-1.5,0.6c-0.6,0.2-0.9,0.4-1.5,0.6
				c-0.5,0.6-0.8,0.9-1.3,1.5c0.5,0.5,0.7,0.8,1.1,1.4c0.6-0.3,0.9-0.4,1.6-0.7c0.6-0.3,0.9-0.5,1.4-0.8c0.6-0.3,0.8-0.5,1.4-0.9
				c0.6-0.3,1-0.5,1.6-0.8C383.2,441.7,382.9,441.4,382.3,440.7z"/>
			<path class="st0" d="M379.6,438.5c0.7,0.6,1,0.9,1.7,1.5c-0.6,0.2-1,0.3-1.6,0.5c-0.6,0.3-0.9,0.4-1.5,0.7
				c-0.5,0.4-0.7,0.6-1.2,1.1c-0.5,0.4-0.7,0.7-1.2,1.1c-0.6-0.8-0.9-1.1-1.5-1.9c0.5-0.4,0.7-0.6,1.1-1.1c0.5-0.3,0.8-0.4,1.4-0.7
				c0.6-0.2,0.9-0.4,1.5-0.6C378.8,438.9,379,438.8,379.6,438.5z"/>
			<path class="st0" d="M376.4,435.6c-0.5,0.2-0.8,0.3-1.3,0.5c-0.6,0.2-0.8,0.3-1.4,0.6c-0.4,0.4-0.6,0.6-1,1
				c-0.3,0.4-0.5,0.7-0.8,1.1c0.4,0.4,0.6,0.5,1,0.9c0.3,0.4,0.5,0.6,0.8,1.1c0.5-0.4,0.7-0.5,1.2-0.9c0.4-0.4,0.7-0.6,1.1-1
				c0.5-0.3,0.7-0.5,1.2-0.9c0.6-0.3,0.9-0.4,1.5-0.7C377.7,436.6,377.3,436.3,376.4,435.6z"/>
			<path class="st0" d="M373.5,433.1c-0.7,0.2-1,0.4-1.7,0.6c-0.5,0.5-0.7,0.7-1.1,1.2c-0.5,0.7-0.8,1-1.3,1.6
				c0.7,0.5,1,0.8,1.6,1.3c0.3-0.4,0.5-0.6,0.9-1c0.5-0.3,0.7-0.5,1.2-0.8c0.4-0.4,0.6-0.5,1.1-0.9c0.5-0.2,0.8-0.2,1.4-0.4
				C374.7,434.1,374.3,433.8,373.5,433.1z"/>
			<path class="st0" d="M371.1,430.6c-0.8,0.2-1.2,0.2-2.1,0.4c-0.6,0.4-0.9,0.6-1.4,1.1c-0.5,0.7-0.7,1-1.2,1.7
				c0.4,0.4,0.6,0.6,1,0.9c0.4,0.3,0.7,0.4,1.1,0.7c0.3-0.5,0.5-0.8,0.8-1.3c0.6-0.4,0.9-0.5,1.5-0.9c0.4-0.3,0.5-0.4,0.9-0.7
				c0.5-0.1,0.7-0.1,1.2-0.2C372.2,431.7,371.8,431.4,371.1,430.6z"/>
			<path class="st0" d="M367.4,428.2c-0.6,0.2-0.8,0.4-1.4,0.6c-0.4,0.4-0.6,0.6-1,1c-0.3,0.4-0.5,0.6-0.8,1
				c-0.2,0.5-0.2,0.7-0.4,1.2c0.8,0.5,1.2,0.8,2,1.3c0.3-0.5,0.4-0.7,0.7-1.1c0.4-0.4,0.6-0.6,1-1.1c0.5-0.2,0.8-0.3,1.4-0.4
				c0.4-0.3,0.6-0.4,1.1-0.6c-0.4-0.4-0.7-0.6-1.1-1C368.2,428.7,367.9,428.5,367.4,428.2z"/>
			<path class="st0" d="M364.8,426.2c-0.5,0.3-0.8,0.5-1.4,0.9c-0.5,0.4-0.7,0.6-1.1,1c-0.2,0.4-0.3,0.6-0.5,1.1
				c-0.2,0.5-0.3,0.7-0.5,1.1c0.7,0.5,1.1,0.7,1.8,1.1c0.2-0.5,0.3-0.7,0.5-1.1c0.4-0.4,0.5-0.6,0.9-1c0.4-0.3,0.6-0.5,1-0.9
				c0.5-0.3,0.7-0.4,1.2-0.6C365.9,427.1,365.6,426.8,364.8,426.2z"/>
			<path class="st0" d="M362.1,424.5c-0.5,0.3-0.7,0.5-1.2,0.8c-0.4,0.4-0.6,0.6-1,0.9c-0.2,0.5-0.4,0.7-0.6,1.2
				c-0.1,0.5-0.1,0.8-0.2,1.3c0.5,0.3,0.8,0.4,1.3,0.7c0.1-0.5,0.2-0.7,0.4-1.2c0.3-0.4,0.5-0.6,0.9-1c0.4-0.3,0.6-0.5,1-0.9
				c0.5-0.2,0.7-0.3,1.2-0.6C363.1,425.2,362.8,425,362.1,424.5z"/>
			<path class="st0" d="M397.9,467.6c-0.8,0.2-1.3,0.3-2.1,0.4c-0.8,0.1-1.2,0.2-1.9,0.4c-0.7,0-0.8,0.4-1.5,0.3
				c-0.7,0.1-0.9,0.3-1.5,0.4c-0.8,0-0.8,0.2-1.5,0.2c0.6,0.7,0.8,1.4,1.3,2.2c0.6-0.1,0.7-0.3,1.4-0.3c0.7,0,0.8-0.5,1.5-0.4
				c0.7-0.1,0.9-0.5,1.6-0.6c0.7,0,1.1,0,1.8,0c0.7-0.1,1-0.1,1.7-0.2C398.4,469.1,398.2,468.6,397.9,467.6z"/>
		</g>
		<g>
			<path class="st0" d="M350.9,429.5c0.2,0,0.3-0.1,0.5-0.1c0.2,0,0.3-0.1,0.5-0.1c0.3-0.1,0.7-0.1,1-0.2c-0.9,0.7-1.7,1.5-2.2,2.4
				c-0.2,0.2-0.4,0.4-0.6,0.6c-0.1,0.1-0.2,0.2-0.3,0.3c-0.1,0.1-0.2,0.2-0.3,0.3c-0.4,0.4-0.7,0.7-1,0.9c-0.3,0.3-0.6,0.5-0.8,0.6
				c-0.1,0.1-0.2,0.1-0.2,0.2c-0.1,0-0.1,0.1-0.1,0.1c1-0.2,1.8-0.5,2.5-0.8c-0.2,1.4,0,2.9,0.4,4.2c-0.4,0.8-1.2,1.7-1.8,2.3
				c-0.3,0.3-0.6,0.6-0.8,0.8c-0.2,0.2-0.4,0.3-0.4,0.3c0.7-0.2,1.3-0.5,1.9-0.9c0.3-0.2,0.6-0.3,0.9-0.5c0.3-0.2,0.6-0.4,0.8-0.5
				c0.3,0.6,0.6,1.2,0.9,1.8c0.1,0.2,0.3,0.5,0.5,0.7c-0.3,0.8-0.7,1.7-1,2.5c-0.4,0.8-0.7,1.4-0.7,1.4c1.2-0.8,2.2-1.6,3-2.3
				c0.7,0.8,1.5,1.7,2.1,2.6c-0.3,0.6-0.6,1.2-0.9,1.6c-0.3,0.4-0.5,0.7-0.5,0.7c0.7-0.6,1.3-1.2,1.9-1.7c0.7,1,1.3,2.2,1.9,3.4
				c-0.2,0.8-0.5,1.6-0.8,2.1c-0.3,0.5-0.5,0.9-0.5,0.9c0.7-0.6,1.3-1.3,1.8-1.9c0.7,1.5,1.2,2.9,1.9,4.3c0.6,1.4,1.3,2.7,2.2,3.8
				c-1.2-1.2-2.8-2.1-4.5-3.1c-1.7-0.9-3.5-1.9-5.3-2.9c-0.9-0.5-1.7-1.1-2.5-1.8c-0.8-0.7-1.5-1.4-2.2-2.3
				c-0.6-0.8-1.2-1.8-1.7-2.8c-0.5-1-0.9-2-1.3-3.1c-0.7-2.2-0.9-4.4-0.5-6.6c0.2-1.1,0.5-2.1,1-3.1c0.5-1,1.1-1.9,1.9-2.7
				c3.1-3.1,7.7-4.2,11.1-3.3c-0.8-0.1-1.6-0.1-2.4,0c-0.8,0.1-1.6,0.4-2.3,0.7c-0.9,0.3-1.6,0.5-2.2,0.8c-0.1,0-0.3,0.1-0.4,0.1
				c-0.1,0-0.2,0.1-0.3,0.1C351,429.5,350.9,429.5,350.9,429.5z"/>
		</g>
		<g>
			<path class="st0" d="M392,420.7c-0.1,0.7-0.1,1.4-0.1,2.1c-0.9-0.7-1.8-1.4-2.7-2.1c-0.8-1-1.2-2-1.5-2.8c-0.1-0.4-0.2-0.7-0.3-1
				c-0.1-0.2-0.1-0.4-0.1-0.4c-0.1,0.5-0.2,1-0.3,1.4c-0.1,0.5-0.1,0.9-0.1,1.3c-0.7-0.4-1.5-0.8-2.2-1.1c-0.7-0.3-1.5-0.7-2.3-0.9
				c-0.2-0.2-0.3-0.4-0.4-0.7c-0.1-0.2-0.3-0.4-0.4-0.7c-0.2-0.5-0.4-0.9-0.6-1.3c-0.2-0.4-0.3-0.7-0.4-1c-0.1-0.2-0.1-0.4-0.1-0.4
				c-0.1,0.5-0.1,1.1-0.1,1.7c0,0.6,0.1,1.2,0.2,1.7l-0.5-0.1l-0.5-0.1c-0.4-0.1-0.7-0.2-1.1-0.2c-0.3-0.1-0.6-0.1-0.9-0.2
				c-0.3-0.3-0.6-0.6-1-0.9c-0.2-0.2-0.3-0.3-0.5-0.5c-0.2-0.1-0.3-0.3-0.5-0.4c-0.3-0.3-0.6-0.5-0.7-0.7c-0.2-0.2-0.3-0.3-0.3-0.3
				c0.2,0.9,0.6,1.8,0.8,2.5c-1.1-0.1-2.3,0-3.4,0.1c-0.2-0.2-0.4-0.3-0.6-0.5c-0.2-0.1-0.4-0.3-0.5-0.4c-0.1-0.1-0.3-0.2-0.3-0.3
				c-0.1-0.1-0.1-0.1-0.1-0.1c0.3,0.5,0.6,1,0.9,1.4c-1.2,0.2-2.4,0.5-3.5,0.9c-0.7-0.1-1.4-0.3-1.9-0.5c-0.5-0.2-0.8-0.3-0.8-0.3
				c0.6,0.4,1.2,0.8,1.7,1.2c-2.7,1.1-5.1,2.9-6.7,5.2c0-1.6,0.5-3.3,1.5-4.9c0.2-0.4,0.5-0.8,0.8-1.2c0.3-0.4,0.6-0.8,1-1.1
				c0.4-0.4,0.8-0.7,1.2-1c0.2-0.2,0.4-0.3,0.6-0.5c0.2-0.2,0.4-0.3,0.7-0.5c0.5-0.3,0.9-0.6,1.4-0.8c0.5-0.2,1-0.5,1.6-0.7
				c0.5-0.2,1.1-0.4,1.7-0.5c0.6-0.1,1.2-0.3,1.8-0.4c2.4-0.4,4.9-0.4,7.3,0.1c2.4,0.5,4.7,1.3,6.7,2.4c0.5,0.3,1,0.6,1.4,0.9
				c0.5,0.3,0.9,0.6,1.3,1c0.8,0.7,1.6,1.4,2.3,2.1c0.7,0.7,1.3,1.5,1.8,2.3c0.5,0.8,1,1.6,1.4,2.4c0.8,1.6,1.3,3.2,1.6,4.8
				c-1-1.1-2.1-2.1-3.3-3.2c-0.3-0.8-0.5-1.5-0.6-2c-0.1-0.3-0.1-0.5-0.2-0.6C392.1,420.8,392,420.7,392,420.7z"/>
		</g>
		<g>
			<path class="st0" d="M335.7,440.5c0.5,0.4,1,0.8,1.5,1.2c0-0.9,0.1-1.8,0.2-2.6c-0.2-1-0.6-1.8-1-2.4c-0.2-0.3-0.4-0.5-0.5-0.7
				c-0.1-0.2-0.2-0.3-0.2-0.3c0.4,0.2,0.8,0.4,1.1,0.7c0.3,0.2,0.7,0.5,1,0.7c0.1-0.6,0.3-1.2,0.5-1.8c0.2-0.6,0.5-1.2,0.7-1.7
				c0-0.2-0.1-0.4-0.2-0.6c-0.1-0.2-0.2-0.4-0.2-0.6c-0.2-0.4-0.4-0.7-0.5-1.1c-0.2-0.3-0.3-0.6-0.4-0.8c-0.1-0.2-0.2-0.3-0.2-0.3
				c0.4,0.3,0.8,0.6,1.2,0.9c0.4,0.4,0.7,0.7,1.1,1.1l0.2-0.4l0.2-0.4c0.2-0.2,0.3-0.5,0.5-0.7c0.2-0.2,0.3-0.4,0.5-0.6
				c0-0.3-0.1-0.7-0.1-1c0-0.2,0-0.4,0-0.5c0-0.2,0-0.3,0-0.5c0-0.3,0-0.6,0-0.8c0-0.2,0-0.3,0-0.3c0.5,0.7,0.9,1.3,1.3,1.9
				c0.6-0.6,1.3-1.2,2.1-1.7c0-0.2,0-0.4,0.1-0.6c0-0.2,0-0.4,0-0.5c0-0.1,0-0.3,0-0.4c0-0.1,0-0.1,0-0.1c0.2,0.4,0.3,0.9,0.4,1.3
				c0.8-0.5,1.7-0.9,2.7-1.3c0.3-0.4,0.6-0.9,0.8-1.2c0.2-0.4,0.3-0.6,0.3-0.6c0,0.6-0.1,1.1-0.2,1.6c2.4-0.7,5-0.9,7.6-0.3
				c-1.1-0.9-2.5-1.7-4.2-2.1c-0.4-0.1-0.9-0.2-1.3-0.3c-0.4-0.1-0.9-0.1-1.4-0.1c-0.5,0-0.9,0-1.4,0c-0.2,0-0.5,0-0.7,0
				c-0.2,0-0.5,0-0.7,0.1c-0.5,0.1-0.9,0.2-1.4,0.2c-0.5,0.1-0.9,0.2-1.4,0.4c-0.5,0.1-0.9,0.3-1.4,0.5c-0.4,0.2-0.9,0.4-1.3,0.7
				c-1.7,1-3.2,2.3-4.3,3.8c-1.1,1.5-1.9,3.2-2.3,4.8c-0.1,0.4-0.2,0.8-0.3,1.3c-0.1,0.4-0.1,0.8-0.1,1.2c0,0.8,0,1.6,0.1,2.4
				c0.1,0.8,0.3,1.5,0.5,2.3c0.2,0.7,0.5,1.4,0.8,2.1c0.6,1.3,1.4,2.6,2.3,3.6c-0.1-1.2-0.2-2.4-0.2-3.5c-0.4-0.6-0.7-1.2-1-1.5
				c-0.1-0.2-0.3-0.4-0.4-0.5C335.8,440.6,335.7,440.5,335.7,440.5z"/>
		</g>
		<g>
			<path class="st0" d="M382.8,428.4c-0.2,0.5-0.4,1-0.5,1.5c-0.6-0.4-1.2-0.8-1.8-1.2c-0.2-0.3-0.3-0.7-0.3-1c0-0.3,0-0.7,0-1
				c0.1-0.6,0.2-1,0.2-1c-0.5,0.7-0.9,1.5-1.2,2.1c-0.8-0.5-1.6-1-2.4-1.5c0-0.3,0-0.7,0-1.1c0-0.4,0.1-0.7,0.1-1.1
				c0-0.3,0.1-0.6,0.1-0.8c0-0.2,0.1-0.3,0.1-0.3c-0.5,0.9-0.9,1.9-1.2,2.8c-0.4-0.2-0.7-0.4-1.1-0.5c-0.2-0.1-0.3-0.1-0.5-0.2
				c0-0.1-0.1-0.3-0.1-0.4c0-0.2-0.1-0.3-0.1-0.5c-0.1-0.3-0.1-0.6-0.2-0.9c-0.2-0.5-0.3-1-0.3-1c-0.2,0.9-0.3,1.7-0.3,2.4
				c-0.6-0.2-1.2-0.4-1.8-0.5c-0.2-0.4-0.3-0.8-0.4-1.1c-0.1-0.3-0.1-0.5-0.1-0.5c0,0.5,0.1,1,0.1,1.4c-0.7-0.2-1.4-0.3-2.2-0.4
				c-0.3-0.4-0.6-0.8-0.8-1.2c-0.2-0.4-0.3-0.6-0.3-0.6c0.1,0.6,0.3,1.2,0.5,1.7c-1.9-0.3-3.8-0.6-5.7-0.9c1.9-1.1,4-2,6.5-2.5
				c1.3-0.2,2.7-0.3,4.1-0.2c1.4,0.1,3,0.5,4.3,1.1c1.4,0.6,2.5,1.4,3.5,2.3c1,0.9,1.7,1.8,2.3,2.8c1.2,1.9,1.9,3.9,2.3,5.8
				c-0.8-0.5-1.7-1-2.5-1.5C382.7,429.3,382.8,428.4,382.8,428.4z"/>
		</g>
		<g>
			<path class="st0" d="M359.4,412.2c0.3,0,0.5-0.1,0.8-0.1c-0.3,0.3-0.6,0.6-0.8,1c-0.4,0.3-0.8,0.5-1.1,0.6
				c-0.3,0.1-0.6,0.1-0.6,0.1c0.4,0.1,0.8,0.1,1.2,0.1c-0.3,0.5-0.6,1-0.8,1.6c-0.4,0.2-0.9,0.3-1.3,0.4c-0.4,0.1-0.7,0.1-0.7,0.1
				c0.5,0.1,1.2,0.1,1.7,0.1c0,0.1-0.1,0.2-0.1,0.3c0,0.1-0.1,0.2-0.1,0.4c0,0.1-0.1,0.2-0.1,0.3c-0.2,0.1-0.3,0.2-0.5,0.3
				c-0.2,0.1-0.4,0.2-0.5,0.3c-0.3,0.2-0.5,0.3-0.5,0.3c0.5,0,0.9-0.1,1.3-0.1c-0.1,0.4-0.2,0.7-0.3,1.1c-0.2,0.1-0.4,0.2-0.5,0.3
				c-0.1,0.1-0.2,0.1-0.2,0.1c0.2,0,0.5-0.1,0.7-0.2c-0.1,0.4-0.1,0.9-0.2,1.3c-0.1,0.2-0.3,0.4-0.4,0.5c-0.1,0.1-0.2,0.2-0.2,0.2
				c0.2-0.1,0.4-0.2,0.6-0.3c0,1,0.2,2.1,0.9,2.9c-0.4-0.5-0.8-0.9-1.2-1.5c-0.4-0.5-0.8-1.1-1.1-1.8c-0.3-0.7-0.5-1.4-0.6-2.1
				c-0.1-0.8,0-1.5,0.3-2.3c0.3-0.8,0.7-1.5,1.2-2.1c0.5-0.6,1.2-1.1,1.8-1.5c0.7-0.4,1.4-0.7,2.1-1c0.7-0.3,1.3-0.4,1.9-0.7
				c-0.5,0.2-1,0.5-1.5,0.9c-0.3,0.2-0.6,0.3-0.8,0.3C359.5,412.1,359.4,412.2,359.4,412.2z"/>
		</g>
		<g>
			<g>
				<path class="st0" d="M403.4,426.1c-0.1,0.3-0.2,0.5-0.3,0.8c0.4-0.2,0.9-0.3,1.3-0.5c0.4-0.3,0.7-0.6,0.9-0.8
					c0.1-0.1,0.2-0.2,0.2-0.3c0.1-0.1,0.1-0.1,0.1-0.1c0,0.2-0.1,0.4-0.1,0.5c0,0.2-0.1,0.3-0.2,0.5c0.3-0.1,0.6-0.1,1-0.2
					c0.3,0,0.6-0.1,1-0.1c0.1-0.1,0.2-0.1,0.3-0.2c0.1-0.1,0.2-0.1,0.2-0.2c0.1-0.1,0.3-0.3,0.4-0.4c0.1-0.1,0.2-0.2,0.3-0.3
					c0.1-0.1,0.1-0.1,0.1-0.1c0,0.2-0.1,0.4-0.2,0.6c-0.1,0.2-0.2,0.4-0.3,0.6l0.2,0l0.2,0c0.1,0,0.3,0,0.4,0c0.1,0,0.2,0,0.4,0
					c0.2-0.1,0.3-0.2,0.5-0.2c0.1,0,0.2-0.1,0.2-0.1c0.1,0,0.2-0.1,0.2-0.1c0.1-0.1,0.3-0.1,0.4-0.2c0.1,0,0.1-0.1,0.1-0.1
					c-0.2,0.3-0.5,0.6-0.7,0.8c0.4,0.1,0.8,0.2,1.2,0.4c0.1,0,0.2-0.1,0.3-0.1c0.1,0,0.2-0.1,0.2-0.1c0.1,0,0.1-0.1,0.2-0.1
					c0,0,0.1,0,0.1,0c-0.2,0.1-0.4,0.3-0.5,0.4c0.4,0.2,0.8,0.4,1.2,0.7c0.3,0,0.5,0,0.7,0c0.2,0,0.3,0,0.3,0
					c-0.3,0.1-0.5,0.2-0.8,0.2c0.8,0.7,1.4,1.6,1.6,2.6c0.2-0.6,0.3-1.2,0.2-1.9c0-0.2-0.1-0.3-0.1-0.5c-0.1-0.2-0.1-0.3-0.2-0.5
					c-0.1-0.2-0.2-0.3-0.3-0.5c-0.1-0.1-0.1-0.2-0.2-0.2c-0.1-0.1-0.1-0.2-0.2-0.2c-0.1-0.2-0.3-0.3-0.4-0.5
					c-0.2-0.1-0.3-0.3-0.5-0.4c-0.2-0.1-0.3-0.3-0.5-0.4c-0.2-0.1-0.4-0.2-0.6-0.3c-0.8-0.4-1.7-0.7-2.7-0.8c-0.9-0.1-1.9,0-2.8,0.1
					c-0.2,0-0.4,0.1-0.6,0.2c-0.2,0.1-0.4,0.1-0.6,0.2c-0.4,0.1-0.8,0.3-1.1,0.5c-0.4,0.2-0.7,0.4-1,0.6c-0.3,0.2-0.6,0.5-0.8,0.7
					c-0.5,0.5-0.9,1-1.3,1.6c0.5-0.3,1.1-0.5,1.6-0.8c0.2-0.2,0.4-0.5,0.5-0.7C403.2,426.3,403.3,426.2,403.4,426.1
					C403.3,426.1,403.4,426.1,403.4,426.1z"/>
			</g>
			<g>
				<path class="st0" d="M399.4,465c0.4,0,0.6,0,1.1,0c0.4-0.1,0.6-0.1,1.1-0.2c0.4-0.1,0.6-0.1,1.1-0.2c0.4,0,0.6-0.1,1.1-0.1
					c0.4-0.1,0.6,0.1,1,0c0.4-0.1,0.6,0,0.9,0c-0.1,0.6-0.1,1-0.1,1.6c-0.5,0.1-0.7,0-1.2,0.1c-0.5,0.1-0.7-0.1-1.2,0
					c-0.5,0-0.8,0-1.3,0c-0.5,0.1-0.8,0.1-1.3,0.3c-0.4,0-0.7,0-1.1,0C399.3,465.9,399.3,465.6,399.4,465z"/>
				<path class="st0" d="M399.2,462.6c0.5,0,0.7,0,1.2,0c0.4-0.1,0.6-0.1,1.1-0.2c0.4-0.1,0.6-0.2,1.1-0.3c0.4-0.1,0.6,0.2,1,0.1
					c0.4,0,0.6,0,1,0c0.4,0,0.6-0.1,1-0.1c0,0.5,0,0.9,0,1.5c-0.5,0-0.7,0-1.2,0c-0.4,0.1-0.5,0-0.9,0.1c-0.4,0-0.6-0.2-1-0.1
					c-0.4,0.1-0.6,0.2-1,0.3c-0.4,0.1-0.6,0.1-1,0.2c-0.4,0-0.6,0.1-0.9,0.1C399.3,463.5,399.3,463.2,399.2,462.6z"/>
				<path class="st0" d="M399.6,460.1c0.5-0.1,0.8-0.1,1.3-0.2c0.5,0,0.7-0.1,1.2-0.1c0.5-0.1,0.7-0.2,1.2-0.3c0.5,0,0.7,0,1.2,0
					c0.5,0,0.7-0.1,1.2-0.1c-0.1,0.6-0.2,0.9-0.3,1.5c-0.5,0.1-0.7,0.1-1.1,0.2c-0.5,0.1-0.7,0.1-1.2,0.2c-0.5,0-0.7,0-1.2-0.1
					c-0.5,0.1-0.7,0.1-1.2,0.2c-0.5,0.1-0.7,0.2-1.2,0.3C399.5,461.2,399.5,460.8,399.6,460.1z"/>
				<path class="st0" d="M400.2,457.4c0.4,0,0.5,0,0.9,0c0.4,0,0.6,0,1-0.1c0.5-0.1,0.8-0.2,1.3-0.3c0.5,0.1,0.8,0.1,1.3,0.1
					c0.5,0.1,0.8,0.1,1.4,0.2c-0.1,0.5-0.2,0.8-0.3,1.3c-0.5,0-0.7,0.1-1.2,0.1c-0.5,0-0.7,0-1.2,0c-0.5,0-0.7-0.1-1.2-0.1
					c-0.5,0.1-0.7,0.2-1.2,0.3c-0.5,0-0.8,0-1.3,0C399.9,458.4,400,458.1,400.2,457.4z"/>
				<path class="st0" d="M400.6,455.1c0.4,0,0.6,0,0.9,0c0.4,0,0.6,0,1,0c0.5,0,0.7,0,1.2,0c0.5,0,0.7,0,1.2,0.1
					c0.5-0.1,0.8-0.1,1.3-0.1c-0.1,0.5-0.2,0.8-0.3,1.4c-0.5,0-0.8,0-1.3,0.1c-0.5,0.1-0.8,0.1-1.3,0.2c-0.5-0.1-0.8-0.1-1.3-0.2
					c-0.4,0-0.5,0.1-0.9,0.1c-0.3-0.1-0.5-0.1-0.8-0.1C400.4,455.9,400.5,455.7,400.6,455.1z"/>
				<path class="st0" d="M401.2,452.4c0.4,0,0.7,0,1.1,0.1c0.4-0.1,0.7-0.2,1.1-0.2c0.4,0.1,0.6,0.1,1,0.2c0.4,0.1,0.6,0.2,1,0.3
					c0.4,0.1,0.6,0.1,1,0.2c-0.1,0.6-0.1,0.9-0.2,1.5c-0.6,0-0.9,0-1.4,0c-0.5,0-0.8-0.1-1.3-0.1c-0.5,0-0.8-0.1-1.3-0.1
					c-0.5-0.1-0.8-0.1-1.4-0.2C401,453.4,401.1,453.1,401.2,452.4z"/>
				<path class="st0" d="M402,450.2c0.6,0,0.9,0,1.5,0c0.4,0.1,0.6,0.2,1,0.3c0.4,0,0.7,0,1.1,0c0.6,0.2,0.9,0.3,1.6,0.5
					c-0.2,0.4-0.3,0.7-0.5,1.1c-0.4-0.1-0.6-0.2-0.9-0.3c-0.4,0-0.7,0.1-1.1,0.1c-0.4-0.1-0.6-0.2-1-0.3c-0.4,0-0.6,0-1.1,0
					c-0.4,0-0.7,0-1.1,0C401.7,451.1,401.8,450.8,402,450.2z"/>
				<path class="st0" d="M402.6,448.5c-0.2,0.5-0.3,0.7-0.5,1.2c0.5,0,0.8-0.1,1.4-0.1c0.5,0,0.8,0.1,1.3,0.1
					c0.5-0.1,0.8-0.1,1.3-0.1c0.5,0.2,0.7,0.4,1.2,0.6c0.1-0.5,0.2-0.7,0.4-1.2c-0.4-0.1-0.6-0.1-1.1-0.2c-0.4-0.1-0.6-0.2-0.9-0.4
					c-0.4,0-0.6,0-1,0c-0.4,0-0.6,0-1,0C403.2,448.4,403,448.4,402.6,448.5z"/>
				<path class="st0" d="M403.3,446c0.5,0.1,0.7,0.2,1.2,0.3c0.5,0.1,0.7,0.1,1.2,0.1c0.5,0.1,0.7,0.1,1.2,0.1
					c0.5,0.3,0.8,0.5,1.3,0.8c-0.2,0.5-0.3,0.7-0.4,1.2c-0.5-0.1-0.8-0.1-1.3-0.2c-0.5-0.1-0.7-0.2-1.2-0.3
					c-0.5-0.1-0.7-0.2-1.2-0.3c-0.5-0.1-0.8-0.1-1.3-0.2C403,446.9,403.1,446.6,403.3,446z"/>
				<path class="st0" d="M404.7,444.1c-0.3,0.6-0.5,0.8-0.8,1.4c0.5,0,0.7,0,1.2,0.1c0.5,0.1,0.7,0.1,1.2,0.2
					c0.4,0.2,0.6,0.3,1.1,0.5c0.4,0.2,0.7,0.3,1.1,0.5c0.2-0.6,0.3-0.9,0.6-1.6c-0.4-0.2-0.6-0.3-1.1-0.5c-0.4-0.1-0.7-0.1-1.1-0.2
					c-0.5-0.1-0.7-0.1-1.2-0.1C405.3,444.2,405.1,444.1,404.7,444.1z"/>
				<path class="st0" d="M406.2,441.4c0.4,0,0.6,0,1,0.1c0.4,0,0.7,0.1,1.1,0.1c0.4,0.2,0.6,0.3,1,0.5c0.3,0.2,0.5,0.4,0.8,0.6
					c-0.2,0.3-0.3,0.5-0.4,0.8c-0.1,0.4-0.2,0.5-0.3,0.9c-0.4-0.2-0.6-0.2-1-0.4c-0.4-0.2-0.6-0.3-1-0.4c-0.4-0.2-0.6-0.2-1-0.4
					c-0.5-0.1-0.7-0.1-1.2-0.2C405.5,442.4,405.7,442.1,406.2,441.4z"/>
				<path class="st0" d="M407.5,439.2c0.5,0,0.8,0.1,1.3,0.1c0.4,0.2,0.7,0.4,1.1,0.6c0.5,0.4,0.8,0.5,1.3,0.9
					c-0.3,0.5-0.5,0.7-0.8,1.2c-0.3-0.2-0.5-0.3-0.8-0.5c-0.4-0.1-0.6-0.2-1-0.3c-0.4-0.2-0.6-0.3-1-0.4c-0.4,0-0.6,0-1,0
					C406.9,440.1,407.1,439.8,407.5,439.2z"/>
				<path class="st0" d="M408.5,437c0.6,0,0.9-0.1,1.5-0.1c0.5,0.2,0.8,0.3,1.3,0.5c0.5,0.4,0.8,0.6,1.3,1c-0.2,0.3-0.3,0.5-0.5,0.8
					c-0.2,0.3-0.4,0.4-0.6,0.7c-0.4-0.3-0.5-0.4-0.9-0.7c-0.5-0.1-0.7-0.2-1.2-0.3c-0.3-0.1-0.5-0.2-0.8-0.3c-0.3,0-0.5,0.1-0.9,0.1
					C408.1,438,408.2,437.7,408.5,437z"/>
				<path class="st0" d="M410.5,434.7c0.4,0.1,0.7,0.1,1.1,0.1c0.4,0.2,0.6,0.3,0.9,0.5c0.3,0.2,0.5,0.3,0.8,0.5
					c0.2,0.3,0.3,0.4,0.6,0.7c-0.4,0.5-0.6,0.8-1,1.3c-0.3-0.3-0.5-0.4-0.8-0.7c-0.4-0.2-0.6-0.3-1-0.5c-0.4,0-0.6,0-1,0
					c-0.4-0.1-0.5-0.1-0.9-0.2c0.2-0.4,0.3-0.6,0.5-0.9C410,435.2,410.2,435,410.5,434.7z"/>
				<path class="st0" d="M411.8,432.8c0.5,0.1,0.7,0.2,1.2,0.3c0.4,0.2,0.6,0.3,1,0.5c0.2,0.3,0.4,0.4,0.6,0.6
					c0.3,0.3,0.4,0.4,0.7,0.7c-0.4,0.4-0.6,0.7-1,1.1c-0.3-0.3-0.4-0.4-0.7-0.7c-0.3-0.2-0.5-0.3-0.9-0.5c-0.4-0.2-0.5-0.2-0.9-0.4
					c-0.4-0.1-0.6-0.1-1-0.2C411.2,433.7,411.4,433.4,411.8,432.8z"/>
				<path class="st0" d="M413.2,431.1c0.4,0.1,0.6,0.2,1,0.3c0.4,0.2,0.5,0.3,0.9,0.5c0.3,0.3,0.4,0.4,0.7,0.7
					c0.2,0.4,0.3,0.5,0.5,0.9c-0.3,0.3-0.4,0.4-0.7,0.7c-0.2-0.3-0.3-0.5-0.5-0.8c-0.3-0.2-0.5-0.3-0.8-0.5
					c-0.4-0.2-0.5-0.2-0.9-0.4c-0.4-0.1-0.6-0.1-1-0.2C412.6,431.8,412.8,431.6,413.2,431.1z"/>
				<path class="st0" d="M399.4,467.5c0.6,0,0.9-0.1,1.5-0.1c0.6,0,0.9-0.1,1.4-0.1c0.5-0.2,0.6,0.1,1.1,0c0.5-0.1,0.7,0,1.2,0
					c0.5-0.1,0.6,0,1.1-0.1c-0.2,0.6-0.2,1.1-0.4,1.7c-0.4,0.1-0.6,0-1,0c-0.5,0.2-0.7-0.2-1.2,0c-0.5,0.1-0.8-0.2-1.3-0.1
					c-0.5,0.1-0.8,0.2-1.3,0.3c-0.5,0.1-0.7,0.1-1.2,0.2C399.4,468.6,399.4,468.2,399.4,467.5z"/>
			</g>
			<g>
				<path class="st0" d="M421.9,430.9c-0.1,0-0.2,0-0.3,0c-0.1,0-0.2,0-0.3,0.1c-0.2,0-0.4,0.1-0.6,0.1c0.7,0.2,1.3,0.4,1.9,0.8
					c0.2,0.1,0.3,0.1,0.5,0.2c0.1,0,0.2,0.1,0.2,0.1c0.1,0,0.1,0.1,0.2,0.1c0.3,0.1,0.6,0.2,0.8,0.3c0.3,0.1,0.5,0.1,0.6,0.2
					c0.1,0,0.1,0,0.2,0c0,0,0.1,0,0.1,0c-0.6,0.1-1.1,0.1-1.6,0.1c0.5,0.7,0.9,1.5,1,2.4c0.5,0.4,1.1,0.6,1.7,0.9
					c0.3,0.1,0.5,0.2,0.7,0.2c0.2,0.1,0.3,0.1,0.3,0.1c-0.4,0-0.9,0-1.3,0c-0.2,0-0.4-0.1-0.6-0.1c-0.2,0-0.4-0.1-0.6-0.1
					c0,0.4,0,0.8,0,1.1c0,0.2,0,0.3,0,0.5c0.4,0.4,0.9,0.8,1.3,1.1c0.4,0.3,0.8,0.6,0.8,0.6c-0.9-0.2-1.6-0.4-2.3-0.6
					c-0.1,0.6-0.3,1.2-0.4,1.8c0.3,0.3,0.7,0.5,1,0.7c0.3,0.2,0.5,0.3,0.5,0.3c-0.5-0.2-1.1-0.3-1.5-0.5c-0.1,0.7-0.1,1.5,0,2.2
					c0.3,0.4,0.7,0.7,1.1,1c0.3,0.2,0.5,0.4,0.5,0.4c-0.5-0.2-1.1-0.4-1.5-0.6c0.1,0.9,0.2,1.8,0.2,2.7c0.1,0.9,0.1,1.7-0.1,2.5
					c0.3-0.9,0.9-1.7,1.5-2.6c0.6-0.9,1.3-1.8,2-2.7c0.3-0.5,0.6-1,0.8-1.5c0.2-0.5,0.4-1.1,0.5-1.7c0.1-0.6,0.1-1.2,0.1-1.8
					c0-0.6-0.1-1.3-0.2-1.9c-0.2-1.3-0.8-2.6-1.6-3.6c-0.4-0.5-0.9-1-1.5-1.4c-0.6-0.4-1.1-0.8-1.8-1c-2.6-1-5.3-0.6-6.9,0.7
					c0.4-0.2,0.8-0.4,1.3-0.5c0.5-0.1,1-0.1,1.4-0.1c0.5,0,1-0.1,1.4-0.1c0.1,0,0.2,0,0.2,0c0.1,0,0.1,0,0.2,0
					C421.9,430.9,421.9,430.9,421.9,430.9z"/>
			</g>
			<g>
				<path class="st0" d="M432.7,434.1c-0.2,0.3-0.3,0.7-0.5,1c-0.3-0.5-0.6-0.9-0.9-1.4c-0.2-0.6-0.2-1.1-0.2-1.5
					c0-0.2,0-0.4,0.1-0.5c0-0.1,0-0.2,0-0.2c-0.2,0.2-0.3,0.4-0.4,0.6c-0.1,0.2-0.2,0.4-0.3,0.6c-0.3-0.3-0.5-0.6-0.8-0.9
					c-0.3-0.3-0.6-0.5-0.9-0.8c0-0.1-0.1-0.2-0.1-0.4c0-0.1,0-0.3,0-0.4c0-0.3,0-0.5,0-0.7c0-0.2,0-0.4,0-0.5c0-0.1,0-0.2,0-0.2
					c-0.2,0.2-0.3,0.5-0.4,0.8c-0.1,0.3-0.2,0.6-0.3,0.8l-0.2-0.2l-0.2-0.1c-0.2-0.1-0.3-0.2-0.5-0.3c-0.1-0.1-0.3-0.1-0.4-0.2
					c-0.1-0.2-0.2-0.4-0.3-0.6c0-0.1-0.1-0.2-0.1-0.3c0-0.1-0.1-0.2-0.1-0.3c-0.1-0.2-0.2-0.3-0.2-0.4c-0.1-0.1-0.1-0.2-0.1-0.2
					c-0.1,0.5-0.1,0.9-0.1,1.3c-0.5-0.2-1.1-0.4-1.6-0.5c-0.1-0.1-0.1-0.2-0.2-0.3c-0.1-0.1-0.1-0.2-0.2-0.3c0-0.1-0.1-0.2-0.1-0.2
					c0,0,0-0.1,0-0.1c0,0.3,0.1,0.5,0.2,0.8c-0.6-0.1-1.2-0.1-1.9-0.1c-0.3-0.2-0.6-0.4-0.8-0.5c-0.2-0.2-0.3-0.3-0.3-0.3
					c0.2,0.3,0.4,0.6,0.6,0.8c-1.5,0.1-3,0.6-4.2,1.5c0.3-0.7,0.9-1.5,1.7-2.1c0.2-0.2,0.4-0.3,0.6-0.4c0.2-0.1,0.5-0.3,0.7-0.4
					c0.2-0.1,0.5-0.2,0.8-0.3c0.1,0,0.3-0.1,0.4-0.1c0.1,0,0.3-0.1,0.4-0.1c0.3-0.1,0.6-0.1,0.9-0.2c0.3,0,0.6-0.1,0.9-0.1
					c0.3,0,0.6,0,0.9,0c0.3,0,0.6,0,0.9,0.1c1.2,0.2,2.4,0.6,3.5,1.1c1.1,0.6,2,1.3,2.7,2.1c0.2,0.2,0.4,0.4,0.5,0.6
					c0.2,0.2,0.3,0.4,0.4,0.7c0.3,0.4,0.5,0.9,0.7,1.3c0.2,0.5,0.3,0.9,0.4,1.4c0.1,0.5,0.2,0.9,0.2,1.3c0.1,0.9,0,1.7-0.2,2.5
					c-0.3-0.7-0.6-1.3-0.9-2c0-0.4,0.1-0.8,0.1-1.1c0-0.1,0-0.3,0.1-0.3C432.6,434.2,432.7,434.1,432.7,434.1z"/>
			</g>
			<g>
				<path class="st0" d="M399.7,437.3c0.2,0.3,0.5,0.7,0.6,1c0.4-0.4,0.7-0.7,1-1.1c0.1-0.3,0.1-0.5,0-0.8c0-0.2-0.1-0.5-0.2-0.7
					c-0.1-0.4-0.3-0.7-0.3-0.7c0.5,0.5,0.9,0.9,1.2,1.3c0.5-0.5,1-1,1.4-1.4c0-0.2-0.1-0.5-0.2-0.8c-0.1-0.3-0.2-0.5-0.3-0.7
					c-0.1-0.2-0.2-0.4-0.3-0.6c-0.1-0.1-0.1-0.2-0.1-0.2c0.5,0.6,1,1.2,1.4,1.8c0.2-0.2,0.4-0.3,0.7-0.5c0.1-0.1,0.2-0.1,0.3-0.2
					c0-0.1,0-0.2,0-0.3c0-0.1,0-0.2,0-0.3c0-0.2,0-0.5,0-0.7c0-0.4,0-0.7,0-0.7c0.3,0.6,0.5,1.1,0.7,1.6c0.4-0.2,0.8-0.4,1.2-0.6
					c0-0.3,0.1-0.6,0.1-0.8c0-0.2,0-0.4,0-0.4c0.1,0.4,0.1,0.7,0.2,1c0.5-0.2,1-0.4,1.5-0.6c0.2-0.3,0.3-0.7,0.4-0.9
					c0.1-0.3,0.1-0.5,0.1-0.5c0,0.4,0,0.9,0,1.2c1.3-0.5,2.6-0.9,3.8-1.4c-1.5-0.5-3.2-0.9-5-0.9c-0.9,0-1.9,0.1-2.9,0.4
					c-1,0.3-2,0.8-2.8,1.4c-0.8,0.6-1.5,1.3-2,2.1c-0.5,0.7-0.9,1.5-1.1,2.3c-0.5,1.5-0.6,3-0.5,4.4c0.5-0.4,1-0.9,1.5-1.4
					C399.9,437.9,399.7,437.3,399.7,437.3z"/>
			</g>
		</g>
	</g>
	<path class="st0" d="M551.1,357.1c-0.1-1.1-0.1-2.2,0.1-2.9c0.2-0.8,0.5-1.4,0.8-1.7c0.1-0.1,0.2-0.2,0.3-0.3
		c-0.1,0.1-0.2,0.2-0.3,0.3c-0.3,0.4-0.7,0.9-1,1.7c-0.8,1.5-1.2,4.1-1.3,7.1c-0.1,1.5-0.2,3.1-0.7,4.5c-0.5,1.4-1.4,2.5-2.7,3.5
		c-1.3,1-3.1,1.8-5,2.6c-2,0.8-4.4,1.7-6.9,3c-2.5,1.3-5.1,3.3-6.6,5.5c-1.6,2.2-2.5,4.6-2.9,6.8c-0.4,2.3-0.3,4.4,0.2,6.3
		c0.4,1.9,1.1,3.4,1.5,4.8c0.8,2.8,0.7,5.2,0.2,6.8c-0.3,0.8-0.5,1.4-0.7,1.8c-0.2,0.4-0.3,0.6-0.3,0.6s0.5-0.8,1.3-2.3
		c0.8-1.5,1.7-3.9,2-7c0.2-1.5,0.3-3.2,0.5-4.8c0.3-1.5,0.9-3.1,1.7-4.7c0.8-1.5,1.9-2.9,3.2-4.2c1.3-1.2,2.7-2.1,4.7-3.2
		c1.9-1,4.2-2.1,6.4-3.5c2.3-1.4,4.4-3.1,5.9-5.2c1.5-2.1,2.3-4.6,2-6.7c-0.2-2.1-0.8-3.7-1.3-5.1
		C551.6,359.5,551.2,358.2,551.1,357.1z"/>
	<path class="st0" d="M517,377.8c1.1,1.2,2,2.1,2.6,2.7c0.6,0.6,1,1,1,1s0-0.5-0.1-1.3c-0.1-0.8-0.4-2.1-0.8-3.5
		c-0.3-1.4-0.6-3-0.4-4.4c0.2-1.5,1-3.2,1.8-5.1c0.9-2,1.7-4.2,1.9-6.5c0.2-2.2-0.5-4.5-1.7-5.9c-1.1-1.4-2.6-2.2-3.6-2.5
		c-1-0.3-1.6-0.2-1.6-0.2s0.5,0.3,1.1,0.9c0.6,0.6,1.1,1.6,1.4,2.8c0.6,2.5-1.1,5.3-3.1,9.5c-0.9,2.1-1.6,4.6-1.3,7
		C514.7,374.8,516,376.6,517,377.8z"/>
	<path class="st0" d="M502.3,382.4c1.2,1.2,3,2.4,4.6,3.5c1.6,1.2,3.1,2.6,4.4,4.3c0.6,0.8,1.1,1.7,1.4,2.5c0.3,0.8,0.4,1.8,0.6,2.7
		c0.3,1.9,0.7,3.7,1.2,5.2c0.5,1.5,1.2,2.7,1.8,3.3c0.6,0.7,1.1,0.9,1.1,0.9c0,0-0.3-0.4-0.5-1.2c-0.2-0.8-0.4-1.9-0.4-3.3
		c0-1.4,0.2-3.1,0.2-5.1c0-1,0-2-0.3-3.3c-0.4-1.3-0.9-2.4-1.7-3.5c-1.6-2.1-3.7-3.7-5.8-4.8c-2.1-1.1-3.9-1.7-5.2-2.4
		c-1.3-0.7-2.2-1.6-2.7-2.3c-0.5-0.7-0.6-1.1-0.6-1.1s-0.1,0.5,0,1.3C500.5,379.9,501.1,381.2,502.3,382.4z"/>
	<path class="st0" d="M387.1,505.5c4.3,1.8,8.4,2.2,11.1,2.2c1.5,0,2.7-0.1,3.5-0.2c0.8-0.1,1.2-0.2,1.2-0.2s-0.4,0-1.2,0
		c-0.8,0-1.9-0.1-3.4-0.3c-2.9-0.4-6.9-1.4-10.9-3.8l-0.9-0.6l-0.8,0.9c-1.5,1.7-4.1,3.1-7,3.3c-2.8,0.2-6-0.9-8-2.9l-1.4-1.4
		l-1.5,1.5l-0.1,0.1c-0.8,0.9-2.7,1.7-4.4,2.1c-1.8,0.4-3.7,0.7-5.3,0.5c-3.4-0.3-6.7-1.6-7.8-3.5l-0.8-1.4l-0.2-0.3l-0.2,0.3
		l-0.8,1.2c-1,1.5-2.4,2.5-3.9,3.1c-1.5,0.7-2.9,1.1-4,1.4c-2.4,0.6-3.7,0.8-3.7,0.8s1.4,0,3.9-0.2c1.2-0.1,2.8-0.3,4.5-0.9
		c1.3-0.4,2.7-1.1,3.9-2.1c0.7,1,1.8,1.8,3,2.4c1.7,0.9,3.6,1.5,5.7,1.8c2.2,0.3,4.4,0.1,6.6-0.4c1.1-0.2,2.2-0.5,3.3-1
		c0.6-0.3,1.2-0.6,1.8-1c2.7,2.1,6.4,3,9.7,2.6C382.5,509.2,385.4,507.5,387.1,505.5z"/>
	<path class="st0" d="M391.9,498c0.3,0.3,0.6,0.7,1,1.1c1.3,1.2,3.7,2.3,6.6,2.5c2.9,0.2,5.4-0.3,7.2-0.8c1.8-0.4,2.8-0.8,2.8-0.8
		s-1.4,0.1-2.9,0.3c-1.8,0.2-4.3,0.4-6.9,0.2c-2.6-0.2-4.9-1-6.3-1.9c-0.4-0.2-0.7-0.5-1-0.7c-0.2-0.2-0.4-0.3-0.6-0.5
		c-0.3-0.3-0.5-0.5-0.5-0.5s0.1,0.2,0.3,0.6C391.7,497.8,391.8,497.9,391.9,498z"/>
	<path class="st0" d="M507.1,506.7c-2.6-0.2-4.9-1-6.3-1.9c-0.7-0.4-1.3-0.9-1.6-1.2c-0.3-0.3-0.5-0.5-0.5-0.5s0.1,0.2,0.3,0.6
		c0.2,0.4,0.7,0.9,1.3,1.5c1.3,1.2,3.7,2.3,6.6,2.5c2.9,0.2,5.4-0.3,7.2-0.8c1.8-0.4,2.8-0.8,2.8-0.8s-1.4,0.1-2.9,0.3
		C512.3,506.7,509.8,506.9,507.1,506.7z"/>
	<path class="st0" d="M442.5,513.8c-1.8-0.1-3.9-0.2-6.2-0.8c-2.3-0.5-4.8-1.4-6.8-3l-0.9-0.7l-1,0.7c-2.7,1.7-6.7,2.5-10.6,2
		c-1.7-0.2-3.3-0.6-4.8-1.2l-0.9-0.4l-0.8,0.4c-3,1.5-6.5,1.9-9.6,1.4c-3.1-0.5-5.5-1.7-7.2-3.1l-0.6-0.5l-0.4,0.3
		c-3.2,2.7-6.9,3.5-6.9,3.5s3.9,0.1,7.1-2.2c1.6,1.7,4,3.3,7.3,4.2c3.2,0.8,7.3,0.9,11.1-0.6c1.6,0.6,3.3,1.1,5.1,1.3
		c4.4,0.5,8.9-0.3,12.2-2.4c2.4,1.3,5,1.9,7.3,2.1c2.6,0.3,4.9,0.2,6.7,0c1.8-0.2,3.3-0.6,4.2-0.8c1-0.3,1.4-0.4,1.4-0.4
		s-0.6,0.1-1.5,0.1C445.7,513.8,444.3,513.9,442.5,513.8z"/>
	<path class="st0" d="M486.1,508.9c1.2-0.3,1.8-0.5,1.8-0.5s-0.7,0-1.8,0c-1.2,0-2.9-0.1-4.9-0.4c-2-0.3-4.3-0.8-6.7-1.8
		c-1.2-0.5-2.5-1-4.1-1.5c-1.6-0.5-3.6-0.6-5.3-0.4c-3.6,0.5-6.4,1.9-8.8,2.9c-2.4,1.1-4.6,1.8-6.5,2.1c-1.9,0.3-3.6,0.2-4.7-0.1
		c-0.5-0.1-1-0.3-1.2-0.4c-0.3-0.1-0.4-0.2-0.4-0.2s0.1,0.1,0.3,0.3c0.2,0.2,0.6,0.5,1.1,0.8c1,0.6,2.8,1.2,5,1.2
		c2.2,0.1,4.9-0.4,7.6-1.3c2.6-0.8,5.4-1.9,8.1-2.2c1.4-0.2,2.6-0.1,3.9,0.2c1.3,0.3,2.6,0.7,4,1.1c2.8,0.7,5.5,0.9,7.7,0.9
		C483.2,509.5,484.9,509.1,486.1,508.9z"/>
	<path class="st0" d="M631.1,501.4c-1.6-0.2-3.4-0.7-5.3-1.4c-1-0.4-2-0.8-3.3-1.2c-1.3-0.4-2.8-0.5-4.2-0.3c-2.9,0.4-5.1,1.5-7,2.3
		c-1.9,0.9-3.6,1.4-5.2,1.7c-1.5,0.3-2.8,0.2-3.7-0.1c-0.4-0.1-0.8-0.2-1-0.3c-0.2-0.1-0.3-0.1-0.3-0.1s0.1,0.1,0.3,0.2
		c0.2,0.2,0.5,0.4,0.9,0.6c0.8,0.5,2.2,0.9,4,0.9c1.8,0,3.9-0.3,6-1c2.1-0.6,4.2-1.5,6.4-1.8c1.1-0.1,2.1-0.1,3.1,0.1
		c1,0.2,2.1,0.6,3.2,0.9c2.2,0.6,4.3,0.7,6,0.7c1.7-0.1,3.1-0.3,4-0.5c0.9-0.2,1.4-0.4,1.4-0.4s-0.6,0-1.4,0
		C634,501.7,632.7,501.6,631.1,501.4z"/>
	<path class="st0" d="M597.4,505.5c-2.4-0.5-4.5-1.1-6.4-1.9c-1.8-0.8-3.7-1.8-5.5-2.1c-1.8-0.3-3.3,0-4.1,0.5
		c-0.4,0.2-0.7,0.4-0.9,0.6c-0.2,0.2-0.2,0.3-0.2,0.3s0.4-0.3,1.3-0.5c0.8-0.2,2.2-0.2,3.6,0.3c1.4,0.5,2.8,1.6,4.7,2.7
		c1.9,1.1,4.3,2,6.9,2.5c5.2,1,10,0.5,13.3,0c3.3-0.5,5.3-1,5.3-1s-2.1-0.1-5.4-0.1C606.7,506.5,602.2,506.4,597.4,505.5z"/>
	<path class="st0" d="M429.3,506.8c1,0.1,2.2,0.1,3.5-0.3c1-0.3,2-0.8,2.9-1.5c1,1,2.4,1.6,3.8,1.7c1.5,0.2,2.8-0.3,3.7-0.8
		c0.9-0.5,1.4-1.1,1.7-1.5c0.3-0.4,0.4-0.7,0.4-0.7s-0.2,0.2-0.6,0.5c-0.4,0.3-1,0.7-1.9,1c-0.9,0.3-2,0.4-3.1,0.2
		c-1.1-0.2-2.2-0.8-3-1.7c-0.1-0.1-0.2-0.2-0.3-0.3l-0.4-0.5l-0.4-0.5l-0.3,0.4l-0.4,0.5c-1.5,1.8-3.9,2.6-5.7,2.7
		c-0.9,0.1-1.6,0-2.1-0.1c-0.5-0.1-0.8-0.2-0.8-0.2s0.2,0.2,0.7,0.4C427.6,506.4,428.3,506.6,429.3,506.8z"/>
	<path class="st0" d="M506,512.2c-2.8,0-6.7-1.2-10-3.5c-0.3-0.2-0.5-0.4-0.8-0.6l-0.9-0.7l-0.9,0.7c-3.1,2.3-6.4,3.8-9,4.1
		c-1.3,0.2-2.4,0.1-3.2,0c-0.8-0.1-1.2-0.2-1.2-0.2s0.3,0.2,1.1,0.6c0.7,0.3,1.8,0.7,3.3,0.8c2.7,0.2,6.5-0.8,9.8-2.9
		c0,0,0.1,0.1,0.1,0.1c3.9,2.7,8.7,3.4,11.8,2.9c1.6-0.2,2.7-0.8,3.5-1.1c0.7-0.4,1.1-0.7,1.1-0.7s-0.5,0.1-1.2,0.4
		C508.6,512,507.4,512.2,506,512.2z"/>
	<path class="st0" d="M333.8,505.1c1,0,1.9-0.3,2.6-0.5c0.7-0.2,1.2-0.5,1.6-0.7c0.3-0.2,0.5-0.3,0.5-0.3s-0.2,0.1-0.6,0.1
		c-0.4,0.1-0.9,0.2-1.6,0.3c-1.4,0.2-3.4,0.3-5-0.5c-0.3-0.1-0.5-0.3-0.7-0.5l-0.4-0.3l-0.4,0.3c-1.3,1-3,1.4-4.1,1.3
		c-0.6,0-1.1-0.1-1.4-0.2c-0.3-0.1-0.5-0.1-0.5-0.1s0.1,0.1,0.4,0.3c0.3,0.2,0.8,0.3,1.4,0.5c1.1,0.3,2.9,0.2,4.5-0.7
		c0.2,0.1,0.4,0.3,0.6,0.4C331.6,505,332.8,505.2,333.8,505.1z"/>
	<path class="st0" d="M441.1,498.6c0.1-0.5-0.2-1.3-1-1.9c-0.4-0.3-1-0.5-1.7-0.6c-0.7-0.1-1.4,0.1-2,0.3c-1.3,0.4-2.5,1.2-3.6,2
		c-0.7,0.5-1.4,1-2,1.5c-0.4,0.3-0.7,0.5-1.1,0.7c-1,0.5-2,0.9-2.9,1.3c-0.9,0.3-1.6,0.5-2.1,0.7c-0.5,0.1-0.8,0.1-0.8,0.1
		s0.3,0.1,0.8,0.1c0.5,0,1.3,0,2.3-0.2c1-0.2,2.1-0.4,3.3-0.9c1-0.4,1.8-1,2.6-1.6c0.3-0.2,0.5-0.4,0.8-0.6c1.1-0.8,2.1-1.5,3.1-2
		c1-0.5,1.9-0.6,2.6-0.2c0.7,0.3,1.1,0.9,1.2,1.3c0.1,0.4,0,0.7,0,0.7C440.8,499.3,441.1,499.1,441.1,498.6z"/>
	<path class="st0" d="M356.4,497.9c-0.8,0.8-1.5,1.3-2.2,1.8c-0.7,0.4-1.1,0.6-1.1,0.6s0.5,0.1,1.4-0.1c0.9-0.1,2.1-0.6,3-1.5
		c0.4-0.4,0.8-0.9,1.1-1.2c0.3-0.3,0.6-0.6,0.9-0.7c0.6-0.3,1.2-0.2,1.2-0.2c0,0-0.4-0.4-1.4-0.4c-0.5,0-1.1,0.2-1.5,0.6
		C357.2,497.1,356.8,497.5,356.4,497.9z"/>
	<path class="st0" d="M560.3,501.5c-1.8,0.2-4.3,0.8-7,1c-2.6,0.2-5-0.2-6.7-0.7c-0.3-0.1-0.6-0.2-0.9-0.3c-0.4-0.1-0.8-0.3-1.1-0.4
		c-0.4-0.2-0.7-0.3-0.7-0.3s0.2,0.2,0.6,0.5c0.1,0.1,0.3,0.2,0.4,0.3c0.4,0.3,0.8,0.6,1.4,0.9c1.6,0.9,4.3,1.8,7.3,1.5
		c3-0.2,5.4-1.2,7.1-1.8c1.7-0.6,2.7-1.1,2.7-1.1S562.1,501.3,560.3,501.5z"/>
	<path class="st0" d="M609.7,490.4C609.7,490.4,609.7,490.5,609.7,490.4C609.7,490.5,609.7,490.4,609.7,490.4z"/>
</g>
</svg>
